{"scene":0,"scenes":[{"nodes":[0]}],"asset":{"version":"2.0","generator":"https://github.com/mikedh/trimesh"},"accessors":[{"componentType":5125,"type":"SCALAR","bufferView":0,"count":384,"max":[65],"min":[0]},{"componentType":5126,"type":"VEC3","byteOffset":0,"bufferView":1,"count":66,"max":[0.054999999701976776,0.01600000075995922,0.01600000075995922],"min":[-0.054999999701976776,-0.01600000075995922,-0.01600000075995922]},{"componentType":5121,"normalized":true,"type":"VEC4","byteOffset":0,"bufferView":2,"count":66,"max":[84,92,100,255],"min":[84,92,100,255]},{"componentType":5125,"type":"SCALAR","bufferView":3,"count":36,"max":[7],"min":[0]},{"componentType":5126,"type":"VEC3","byteOffset":0,"bufferView":4,"count":8,"max":[0.008999999612569809,0.009999999776482582,0.014999999664723873],"min":[-0.008999999612569809,-0.009999999776482582,-0.014999999664723873]},{"componentType":5121,"normalized":true,"type":"VEC4","byteOffset":0,"bufferView":5,"count":8,"max":[42,44,48,255],"min":[42,44,48,255]},{"componentType":5126,"type":"VEC3","byteOffset":0,"bufferView":6,"count":8,"max":[0.014000000432133675,0.004000000189989805,0.008999999612569809],"min":[-0.014000000432133675,-0.004000000189989805,-0.008999999612569809]},{"componentType":5126,"type":"VEC3","byteOffset":0,"bufferView":7,"count":8,"max":[0.008999999612569809,0.004999999888241291,0.003000000026077032],"min":[-0.008999999612569809,-0.004999999888241291,-0.003000000026077032]}],"meshes":[{"name":"metaverse_precision_muzzle_brake_body_geom","primitives":[{"attributes":{"POSITION":1,"COLOR_0":2},"indices":0,"mode":4}]},{"name":"metaverse_precision_muzzle_brake_chamber_1_geom","primitives":[{"attributes":{"POSITION":4,"COLOR_0":5},"indices":3,"mode":4}]},{"name":"metaverse_precision_muzzle_brake_chamber_2_geom","primitives":[{"attributes":{"POSITION":4,"COLOR_0":5},"indices":3,"mode":4}]},{"name":"metaverse_precision_muzzle_brake_top_port_geom","primitives":[{"attributes":{"POSITION":6,"COLOR_0":5},"indices":3,"mode":4}]},{"name":"metaverse_precision_muzzle_brake_side_port_left_geom","primitives":[{"attributes":{"POSITION":7,"COLOR_0":5},"indices":3,"mode":4}]},{"name":"metaverse_precision_muzzle_brake_side_port_right_geom","primitives":[{"attributes":{"POSITION":7,"COLOR_0":5},"indices":3,"mode":4}]}],"nodes":[{"name":"metaverse_precision_muzzle_brake_root","children":[1,2,3,4,5,6]},{"name":"metaverse_precision_muzzle_brake_body","mesh":0,"matrix":[1.0,0.0,-0.0,0.0,0.0,1.0,0.0,0.0,0.0,0.0,1.0,0.0,0.055,0.0,0.0,1.0]},{"name":"metaverse_precision_muzzle_brake_chamber_1","mesh":1,"matrix":[1.0,0.0,-0.0,0.0,0.0,1.0,0.0,0.0,0.0,0.0,1.0,0.0,0.03,0.0,0.0,1.0]},{"name":"metaverse_precision_muzzle_brake_chamber_2","mesh":2,"matrix":[1.0,0.0,-0.0,0.0,0.0,1.0,0.0,0.0,0.0,0.0,1.0,0.0,0.065,0.0,0.0,1.0]},{"name":"metaverse_precision_muzzle_brake_top_port","mesh":3,"matrix":[1.0,0.0,-0.0,0.0,0.0,1.0,0.0,0.0,0.0,0.0,1.0,0.0,0.045,0.014,0.0,1.0]},{"name":"metaverse_precision_muzzle_brake_side_port_left","mesh":4,"matrix":[1.0,0.0,-0.0,0.0,0.0,1.0,0.0,0.0,0.0,0.0,1.0,0.0,0.07,0.0,-0.016,1.0]},{"name":"metaverse_precision_muzzle_brake_side_port_right","mesh":5,"matrix":[1.0,0.0,-0.0,0.0,0.0,1.0,0.0,0.0,0.0,0.0,1.0,0.0,0.07,0.0,0.016,1.0]}],"buffers":[{"uri":"data:application/octet-stream;base64,","byteLength":1536},{"uri":"data:application/octet-stream;base64,","byteLength":792},{"uri":"data:application/octet-stream;base64,","byteLength":264},{"uri":"data:application/octet-stream;base64,","byteLength":144},{"uri":"data:application/octet-stream;base64,","byteLength":96},{"uri":"data:application/octet-stream;base64,","byteLength":32},{"uri":"data:application/octet-stream;base64,","byteLength":96},{"uri":"data:application/octet-stream;base64,","byteLength":96}],"bufferViews":[{"buffer":0,"byteOffset":0,"byteLength":1536},{"buffer":1,"byteOffset":0,"byteLength":792},{"buffer":2,"byteOffset":0,"byteLength":264},{"buffer":3,"byteOffset":0,"byteLength":144},{"buffer":4,"byteOffset":0,"byteLength":96},{"buffer":5,"byteOffset":0,"byteLength":32},{"buffer":6,"byteOffset":0,"byteLength":96},{"buffer":7,"byteOffset":0,"byteLength":96}]}