{"scene":0,"scenes":[{"nodes":[0]}],"asset":{"version":"2.0","generator":"https://github.com/mikedh/trimesh"},"accessors":[{"componentType":5125,"type":"SCALAR","bufferView":0,"count":288,"max":[49],"min":[0]},{"componentType":5126,"type":"VEC3","byteOffset":0,"bufferView":1,"count":50,"max":[0.04500000178813934,0.014000000432133675,0.014000000432133675],"min":[-0.04500000178813934,-0.014000000432133675,-0.014000000432133675]},{"componentType":5121,"normalized":true,"type":"VEC4","byteOffset":0,"bufferView":2,"count":50,"max":[84,92,100,255],"min":[84,92,100,255]},{"componentType":5125,"type":"SCALAR","bufferView":3,"count":36,"max":[7],"min":[0]},{"componentType":5126,"type":"VEC3","byteOffset":0,"bufferView":4,"count":8,"max":[0.014999999664723873,0.004000000189989805,0.009999999776482582],"min":[-0.014999999664723873,-0.004000000189989805,-0.009999999776482582]},{"componentType":5121,"normalized":true,"type":"VEC4","byteOffset":0,"bufferView":5,"count":8,"max":[42,44,48,255],"min":[42,44,48,255]},{"componentType":5126,"type":"VEC3","byteOffset":0,"bufferView":6,"count":8,"max":[0.009999999776482582,0.004999999888241291,0.004000000189989805],"min":[-0.009999999776482582,-0.004999999888241291,-0.004000000189989805]}],"meshes":[{"name":"metaverse_battle_rifle_brake_body_geom","extras":{"shape":"cylinder","height":0.09,"radius":0.014,"processed":true},"primitives":[{"attributes":{"POSITION":1,"COLOR_0":2},"indices":0,"mode":4}]},{"name":"metaverse_battle_rifle_brake_port_top_geom","extras":{"shape":"box","extents":[0.03,0.008,0.02]},"primitives":[{"attributes":{"POSITION":4,"COLOR_0":5},"indices":3,"mode":4}]},{"name":"metaverse_battle_rifle_brake_port_side_geom","extras":{"shape":"box","extents":[0.02,0.01,0.008]},"primitives":[{"attributes":{"POSITION":6,"COLOR_0":5},"indices":3,"mode":4}]}],"nodes":[{"name":"metaverse_battle_rifle_brake_root","children":[1,2,3]},{"name":"metaverse_battle_rifle_brake_body","mesh":0,"matrix":[1.0,0.0,-0.0,0.0,0.0,1.0,0.0,0.0,0.0,0.0,1.0,0.0,0.045,0.0,0.0,1.0]},{"name":"metaverse_battle_rifle_brake_port_top","mesh":1,"matrix":[1.0,0.0,-0.0,0.0,0.0,1.0,0.0,0.0,0.0,0.0,1.0,0.0,0.035,0.012,0.0,1.0]},{"name":"metaverse_battle_rifle_brake_port_side","mesh":2,"matrix":[1.0,0.0,-0.0,0.0,0.0,1.0,0.0,0.0,0.0,0.0,1.0,0.0,0.045,0.0,0.015,1.0]}],"buffers":[{"uri":"data:application/octet-stream;base64,","byteLength":1152},{"uri":"data:application/octet-stream;base64,","byteLength":600},{"uri":"data:application/octet-stream;base64,","byteLength":200},{"uri":"data:application/octet-stream;base64,","byteLength":144},{"uri":"data:application/octet-stream;base64,","byteLength":96},{"uri":"data:application/octet-stream;base64,","byteLength":32},{"uri":"data:application/octet-stream;base64,","byteLength":96}],"bufferViews":[{"buffer":0,"byteOffset":0,"byteLength":1152},{"buffer":1,"byteOffset":0,"byteLength":600},{"buffer":2,"byteOffset":0,"byteLength":200},{"buffer":3,"byteOffset":0,"byteLength":144},{"buffer":4,"byteOffset":0,"byteLength":96},{"buffer":5,"byteOffset":0,"byteLength":32},{"buffer":6,"byteOffset":0,"byteLength":96}]}