{"scene":0,"scenes":[{"nodes":[0]}],"asset":{"version":"2.0","generator":"https://github.com/mikedh/trimesh"},"accessors":[{"componentType":5125,"type":"SCALAR","bufferView":0,"count":36,"max":[7],"min":[0]},{"componentType":5126,"type":"VEC3","byteOffset":0,"bufferView":1,"count":8,"max":[0.07000000029802322,0.010999999940395355,0.019999999552965164],"min":[-0.07000000029802322,-0.010999999940395355,-0.019999999552965164]},{"componentType":5121,"normalized":true,"type":"VEC4","byteOffset":0,"bufferView":2,"count":8,"max":[84,92,100,255],"min":[84,92,100,255]},{"componentType":5126,"type":"VEC3","byteOffset":0,"bufferView":3,"count":8,"max":[0.05999999865889549,0.02500000037252903,0.02500000037252903],"min":[-0.05999999865889549,-0.02500000037252903,-0.02500000037252903]},{"componentType":5121,"normalized":true,"type":"VEC4","byteOffset":0,"bufferView":4,"count":8,"max":[42,44,48,255],"min":[42,44,48,255]},{"componentType":5126,"type":"VEC3","byteOffset":0,"bufferView":5,"count":8,"max":[0.0020000000949949026,0.014999999664723873,0.014999999664723873],"min":[-0.0020000000949949026,-0.014999999664723873,-0.014999999664723873]},{"componentType":5121,"normalized":true,"type":"VEC4","byteOffset":0,"bufferView":6,"count":8,"max":[96,160,188,180],"min":[96,160,188,180]},{"componentType":5126,"type":"VEC3","byteOffset":0,"bufferView":7,"count":8,"max":[0.014999999664723873,0.012500000186264515,0.012500000186264515],"min":[-0.014999999664723873,-0.012500000186264515,-0.012500000186264515]},{"componentType":5121,"normalized":true,"type":"VEC4","byteOffset":0,"bufferView":8,"count":8,"max":[73,129,196,255],"min":[73,129,196,255]}],"meshes":[{"name":"metaverse_smart_link_launcher_optic_base_geom","extras":{"shape":"box","extents":[0.14,0.022,0.04]},"primitives":[{"attributes":{"POSITION":1,"COLOR_0":2},"indices":0,"mode":4}]},{"name":"metaverse_smart_link_launcher_optic_body_geom","extras":{"shape":"box","extents":[0.12,0.05,0.05]},"primitives":[{"attributes":{"POSITION":3,"COLOR_0":4},"indices":0,"mode":4}]},{"name":"metaverse_smart_link_launcher_optic_lens_geom","extras":{"shape":"box","extents":[0.004,0.03,0.03]},"primitives":[{"attributes":{"POSITION":5,"COLOR_0":6},"indices":0,"mode":4}]},{"name":"metaverse_smart_link_launcher_optic_sensor_geom","extras":{"shape":"box","extents":[0.03,0.025,0.025]},"primitives":[{"attributes":{"POSITION":7,"COLOR_0":8},"indices":0,"mode":4}]}],"nodes":[{"name":"metaverse_smart_link_launcher_optic_root","children":[1,2,3,4]},{"name":"metaverse_smart_link_launcher_optic_base","mesh":0,"matrix":[1.0,0.0,-0.0,0.0,0.0,1.0,0.0,0.0,0.0,0.0,1.0,0.0,0.0,0.011,0.0,1.0]},{"name":"metaverse_smart_link_launcher_optic_body","mesh":1,"matrix":[1.0,0.0,-0.0,0.0,0.0,1.0,0.0,0.0,0.0,0.0,1.0,0.0,0.01,0.048,0.0,1.0]},{"name":"metaverse_smart_link_launcher_optic_lens","mesh":2,"matrix":[1.0,0.0,-0.0,0.0,0.0,1.0,0.0,0.0,0.0,0.0,1.0,0.0,0.06,0.05,0.0,1.0]},{"name":"metaverse_smart_link_launcher_optic_sensor","mesh":3,"matrix":[1.0,0.0,-0.0,0.0,0.0,1.0,0.0,0.0,0.0,0.0,1.0,0.0,-0.05,0.055,0.0,1.0]}],"buffers":[{"uri":"data:application/octet-stream;base64,","byteLength":144},{"uri":"data:application/octet-stream;base64,","byteLength":96},{"uri":"data:application/octet-stream;base64,","byteLength":32},{"uri":"data:application/octet-stream;base64,","byteLength":96},{"uri":"data:application/octet-stream;base64,","byteLength":32},{"uri":"data:application/octet-stream;base64,","byteLength":96},{"uri":"data:application/octet-stream;base64,","byteLength":32},{"uri":"data:application/octet-stream;base64,","byteLength":96},{"uri":"data:application/octet-stream;base64,","byteLength":32}],"bufferViews":[{"buffer":0,"byteOffset":0,"byteLength":144},{"buffer":1,"byteOffset":0,"byteLength":96},{"buffer":2,"byteOffset":0,"byteLength":32},{"buffer":3,"byteOffset":0,"byteLength":96},{"buffer":4,"byteOffset":0,"byteLength":32},{"buffer":5,"byteOffset":0,"byteLength":96},{"buffer":6,"byteOffset":0,"byteLength":32},{"buffer":7,"byteOffset":0,"byteLength":96},{"buffer":8,"byteOffset":0,"byteLength":32}]}