{"scene":0,"scenes":[{"nodes":[0]}],"asset":{"version":"2.0","generator":"https://github.com/mikedh/trimesh"},"accessors":[{"componentType":5125,"type":"SCALAR","bufferView":0,"count":36,"max":[7],"min":[0]},{"componentType":5126,"type":"VEC3","byteOffset":0,"bufferView":1,"count":8,"max":[0.03500000014901161,0.00800000037997961,0.014999999664723873],"min":[-0.03500000014901161,-0.00800000037997961,-0.014999999664723873]},{"componentType":5121,"normalized":true,"type":"VEC4","byteOffset":0,"bufferView":2,"count":8,"max":[84,92,100,255],"min":[84,92,100,255]},{"componentType":5126,"type":"VEC3","byteOffset":0,"bufferView":3,"count":8,"max":[0.02250000089406967,0.014000000432133675,0.010999999940395355],"min":[-0.02250000089406967,-0.014000000432133675,-0.010999999940395355]},{"componentType":5121,"normalized":true,"type":"VEC4","byteOffset":0,"bufferView":4,"count":8,"max":[58,60,63,255],"min":[58,60,63,255]},{"componentType":5126,"type":"VEC3","byteOffset":0,"bufferView":5,"count":8,"max":[0.006000000052154064,0.03500000014901161,0.004000000189989805],"min":[-0.006000000052154064,-0.03500000014901161,-0.004000000189989805]},{"componentType":5121,"normalized":true,"type":"VEC4","byteOffset":0,"bufferView":6,"count":8,"max":[134,142,150,255],"min":[134,142,150,255]},{"componentType":5126,"type":"VEC3","byteOffset":0,"bufferView":7,"count":8,"max":[0.008999999612569809,0.004000000189989805,0.004999999888241291],"min":[-0.008999999612569809,-0.004000000189989805,-0.004999999888241291]},{"componentType":5121,"normalized":true,"type":"VEC4","byteOffset":0,"bufferView":8,"count":8,"max":[36,38,40,255],"min":[36,38,40,255]}],"meshes":[{"name":"metaverse_precision_bipod_mount_geom","primitives":[{"attributes":{"POSITION":1,"COLOR_0":2},"indices":0,"mode":4}]},{"name":"metaverse_precision_bipod_body_geom","primitives":[{"attributes":{"POSITION":3,"COLOR_0":4},"indices":0,"mode":4}]},{"name":"metaverse_precision_bipod_leg_left_geom","primitives":[{"attributes":{"POSITION":5,"COLOR_0":6},"indices":0,"mode":4}]},{"name":"metaverse_precision_bipod_leg_right_geom","primitives":[{"attributes":{"POSITION":5,"COLOR_0":6},"indices":0,"mode":4}]},{"name":"metaverse_precision_bipod_foot_left_geom","primitives":[{"attributes":{"POSITION":7,"COLOR_0":8},"indices":0,"mode":4}]},{"name":"metaverse_precision_bipod_foot_right_geom","primitives":[{"attributes":{"POSITION":7,"COLOR_0":8},"indices":0,"mode":4}]}],"nodes":[{"name":"metaverse_precision_bipod_root","children":[1,2,3,4,5,6]},{"name":"metaverse_precision_bipod_mount","mesh":0,"matrix":[1.0,0.0,-0.0,0.0,0.0,1.0,0.0,0.0,0.0,0.0,1.0,0.0,0.0,-0.004,0.0,1.0]},{"name":"metaverse_precision_bipod_body","mesh":1,"matrix":[1.0,0.0,-0.0,0.0,0.0,1.0,0.0,0.0,0.0,0.0,1.0,0.0,0.01,-0.018,0.0,1.0]},{"name":"metaverse_precision_bipod_leg_left","mesh":2,"matrix":[0.9393727128473789,0.34289780745545134,-0.0,0.0,-0.34289780745545134,0.9393727128473789,0.0,0.0,0.0,0.0,1.0,0.0,-0.016,-0.055,-0.014,1.0]},{"name":"metaverse_precision_bipod_leg_right","mesh":3,"matrix":[0.9393727128473789,0.34289780745545134,-0.0,0.0,-0.34289780745545134,0.9393727128473789,0.0,0.0,0.0,0.0,1.0,0.0,-0.016,-0.055,0.014,1.0]},{"name":"metaverse_precision_bipod_foot_left","mesh":4,"matrix":[1.0,0.0,-0.0,0.0,0.0,1.0,0.0,0.0,0.0,0.0,1.0,0.0,-0.03,-0.09,-0.014,1.0]},{"name":"metaverse_precision_bipod_foot_right","mesh":5,"matrix":[1.0,0.0,-0.0,0.0,0.0,1.0,0.0,0.0,0.0,0.0,1.0,0.0,-0.03,-0.09,0.014,1.0]}],"buffers":[{"uri":"data:application/octet-stream;base64,","byteLength":144},{"uri":"data:application/octet-stream;base64,","byteLength":96},{"uri":"data:application/octet-stream;base64,","byteLength":32},{"uri":"data:application/octet-stream;base64,","byteLength":96},{"uri":"data:application/octet-stream;base64,","byteLength":32},{"uri":"data:application/octet-stream;base64,","byteLength":96},{"uri":"data:application/octet-stream;base64,","byteLength":32},{"uri":"data:application/octet-stream;base64,","byteLength":96},{"uri":"data:application/octet-stream;base64,","byteLength":32}],"bufferViews":[{"buffer":0,"byteOffset":0,"byteLength":144},{"buffer":1,"byteOffset":0,"byteLength":96},{"buffer":2,"byteOffset":0,"byteLength":32},{"buffer":3,"byteOffset":0,"byteLength":96},{"buffer":4,"byteOffset":0,"byteLength":32},{"buffer":5,"byteOffset":0,"byteLength":96},{"buffer":6,"byteOffset":0,"byteLength":32},{"buffer":7,"byteOffset":0,"byteLength":96},{"buffer":8,"byteOffset":0,"byteLength":32}]}