{"scene":0,"scenes":[{"nodes":[0]}],"asset":{"version":"2.0","generator":"https://github.com/mikedh/trimesh"},"accessors":[{"componentType":5125,"type":"SCALAR","bufferView":0,"count":36,"max":[7],"min":[0]},{"componentType":5126,"type":"VEC3","byteOffset":0,"bufferView":1,"count":8,"max":[0.02500000037252903,0.007000000216066837,0.014999999664723873],"min":[-0.02500000037252903,-0.007000000216066837,-0.014999999664723873]},{"componentType":5121,"normalized":true,"type":"VEC4","byteOffset":0,"bufferView":2,"count":8,"max":[84,92,100,255],"min":[84,92,100,255]},{"componentType":5126,"type":"VEC3","byteOffset":0,"bufferView":3,"count":8,"max":[0.02250000089406967,0.014999999664723873,0.014000000432133675],"min":[-0.02250000089406967,-0.014999999664723873,-0.014000000432133675]},{"componentType":5121,"normalized":true,"type":"VEC4","byteOffset":0,"bufferView":4,"count":8,"max":[42,44,48,255],"min":[42,44,48,255]},{"componentType":5126,"type":"VEC3","byteOffset":0,"bufferView":5,"count":8,"max":[0.001500000013038516,0.008999999612569809,0.010999999940395355],"min":[-0.001500000013038516,-0.008999999612569809,-0.010999999940395355]},{"componentType":5121,"normalized":true,"type":"VEC4","byteOffset":0,"bufferView":6,"count":8,"max":[96,160,188,180],"min":[96,160,188,180]}],"meshes":[{"name":"metaverse_micro_red_dot_base_geom","extras":{"shape":"box","extents":[0.05,0.014,0.03]},"primitives":[{"attributes":{"POSITION":1,"COLOR_0":2},"indices":0,"mode":4}]},{"name":"metaverse_micro_red_dot_body_geom","extras":{"shape":"box","extents":[0.045,0.03,0.028]},"primitives":[{"attributes":{"POSITION":3,"COLOR_0":4},"indices":0,"mode":4}]},{"name":"metaverse_micro_red_dot_lens_geom","extras":{"shape":"box","extents":[0.003,0.018,0.022]},"primitives":[{"attributes":{"POSITION":5,"COLOR_0":6},"indices":0,"mode":4}]}],"nodes":[{"name":"metaverse_micro_red_dot_root","children":[1,2,3]},{"name":"metaverse_micro_red_dot_base","mesh":0,"matrix":[1.0,0.0,-0.0,0.0,0.0,1.0,0.0,0.0,0.0,0.0,1.0,0.0,0.0,0.007,0.0,1.0]},{"name":"metaverse_micro_red_dot_body","mesh":1,"matrix":[1.0,0.0,-0.0,0.0,0.0,1.0,0.0,0.0,0.0,0.0,1.0,0.0,0.005,0.028,0.0,1.0]},{"name":"metaverse_micro_red_dot_lens","mesh":2,"matrix":[1.0,0.0,-0.0,0.0,0.0,1.0,0.0,0.0,0.0,0.0,1.0,0.0,0.026,0.03,0.0,1.0]}],"buffers":[{"uri":"data:application/octet-stream;base64,","byteLength":144},{"uri":"data:application/octet-stream;base64,","byteLength":96},{"uri":"data:application/octet-stream;base64,","byteLength":32},{"uri":"data:application/octet-stream;base64,","byteLength":96},{"uri":"data:application/octet-stream;base64,","byteLength":32},{"uri":"data:application/octet-stream;base64,","byteLength":96},{"uri":"data:application/octet-stream;base64,","byteLength":32}],"bufferViews":[{"buffer":0,"byteOffset":0,"byteLength":144},{"buffer":1,"byteOffset":0,"byteLength":96},{"buffer":2,"byteOffset":0,"byteLength":32},{"buffer":3,"byteOffset":0,"byteLength":96},{"buffer":4,"byteOffset":0,"byteLength":32},{"buffer":5,"byteOffset":0,"byteLength":96},{"buffer":6,"byteOffset":0,"byteLength":32}]}