{"scene":0,"scenes":[{"nodes":[0]}],"asset":{"version":"2.0","generator":"https://github.com/mikedh/trimesh"},"accessors":[{"componentType":5125,"type":"SCALAR","bufferView":0,"count":288,"max":[49],"min":[0]},{"componentType":5126,"type":"VEC3","byteOffset":0,"bufferView":1,"count":50,"max":[0.09000000357627869,0.017000000923871994,0.017000000923871994],"min":[-0.09000000357627869,-0.017000000923871994,-0.017000000923871994]},{"componentType":5121,"normalized":true,"type":"VEC4","byteOffset":0,"bufferView":2,"count":50,"max":[42,44,48,255],"min":[42,44,48,255]}],"meshes":[{"name":"metaverse_rifle_suppressor_body_geom","extras":{"shape":"cylinder","height":0.18,"radius":0.017,"processed":true},"primitives":[{"attributes":{"POSITION":1,"COLOR_0":2},"indices":0,"mode":4}]}],"nodes":[{"name":"metaverse_rifle_suppressor_root","children":[1]},{"name":"metaverse_rifle_suppressor_body","mesh":0,"matrix":[1.0,0.0,-0.0,0.0,0.0,1.0,0.0,0.0,0.0,0.0,1.0,0.0,0.09,0.0,0.0,1.0]}],"buffers":[{"uri":"data:application/octet-stream;base64,","byteLength":1152},{"uri":"data:application/octet-stream;base64,","byteLength":600},{"uri":"data:application/octet-stream;base64,","byteLength":200}],"bufferViews":[{"buffer":0,"byteOffset":0,"byteLength":1152},{"buffer":1,"byteOffset":0,"byteLength":600},{"buffer":2,"byteOffset":0,"byteLength":200}]}