{"scene":0,"scenes":[{"nodes":[0]}],"asset":{"version":"2.0","generator":"https://github.com/mikedh/trimesh"},"accessors":[{"componentType":5125,"type":"SCALAR","bufferView":0,"count":288,"max":[49],"min":[0]},{"componentType":5126,"type":"VEC3","byteOffset":0,"bufferView":1,"count":50,"max":[0.03999999910593033,0.01600000075995922,0.01600000075995922],"min":[-0.03999999910593033,-0.01600000075995922,-0.01600000075995922]},{"componentType":5121,"normalized":true,"type":"VEC4","byteOffset":0,"bufferView":2,"count":50,"max":[84,92,100,255],"min":[84,92,100,255]},{"componentType":5125,"type":"SCALAR","bufferView":3,"count":36,"max":[7],"min":[0]},{"componentType":5126,"type":"VEC3","byteOffset":0,"bufferView":4,"count":8,"max":[0.007499999832361937,0.006000000052154064,0.004000000189989805],"min":[-0.007499999832361937,-0.006000000052154064,-0.004000000189989805]},{"componentType":5121,"normalized":true,"type":"VEC4","byteOffset":0,"bufferView":5,"count":8,"max":[134,142,150,255],"min":[134,142,150,255]},{"componentType":5126,"type":"VEC3","byteOffset":0,"bufferView":6,"count":8,"max":[0.007499999832361937,0.004000000189989805,0.004000000189989805],"min":[-0.007499999832361937,-0.004000000189989805,-0.004000000189989805]}],"meshes":[{"name":"metaverse_breacher_choke_body_geom","extras":{"shape":"cylinder","height":0.08,"radius":0.016,"processed":true},"primitives":[{"attributes":{"POSITION":1,"COLOR_0":2},"indices":0,"mode":4}]},{"name":"metaverse_breacher_choke_tooth_top_geom","extras":{"shape":"box","extents":[0.015,0.012,0.008]},"primitives":[{"attributes":{"POSITION":4,"COLOR_0":5},"indices":3,"mode":4}]},{"name":"metaverse_breacher_choke_tooth_left_geom","extras":{"shape":"box","extents":[0.015,0.008,0.008]},"primitives":[{"attributes":{"POSITION":6,"COLOR_0":5},"indices":3,"mode":4}]},{"name":"metaverse_breacher_choke_tooth_right_geom","extras":{"shape":"box","extents":[0.015,0.008,0.008]},"primitives":[{"attributes":{"POSITION":6,"COLOR_0":5},"indices":3,"mode":4}]}],"nodes":[{"name":"metaverse_breacher_choke_root","children":[1,2,3,4]},{"name":"metaverse_breacher_choke_body","mesh":0,"matrix":[1.0,0.0,-0.0,0.0,0.0,1.0,0.0,0.0,0.0,0.0,1.0,0.0,0.04,0.0,0.0,1.0]},{"name":"metaverse_breacher_choke_tooth_top","mesh":1,"matrix":[1.0,0.0,-0.0,0.0,0.0,1.0,0.0,0.0,0.0,0.0,1.0,0.0,0.082,0.013,0.0,1.0]},{"name":"metaverse_breacher_choke_tooth_left","mesh":2,"matrix":[1.0,0.0,-0.0,0.0,0.0,1.0,0.0,0.0,0.0,0.0,1.0,0.0,0.082,0.0,-0.012,1.0]},{"name":"metaverse_breacher_choke_tooth_right","mesh":3,"matrix":[1.0,0.0,-0.0,0.0,0.0,1.0,0.0,0.0,0.0,0.0,1.0,0.0,0.082,0.0,0.012,1.0]}],"buffers":[{"uri":"data:application/octet-stream;base64,","byteLength":1152},{"uri":"data:application/octet-stream;base64,","byteLength":600},{"uri":"data:application/octet-stream;base64,","byteLength":200},{"uri":"data:application/octet-stream;base64,","byteLength":144},{"uri":"data:application/octet-stream;base64,","byteLength":96},{"uri":"data:application/octet-stream;base64,","byteLength":32},{"uri":"data:application/octet-stream;base64,","byteLength":96}],"bufferViews":[{"buffer":0,"byteOffset":0,"byteLength":1152},{"buffer":1,"byteOffset":0,"byteLength":600},{"buffer":2,"byteOffset":0,"byteLength":200},{"buffer":3,"byteOffset":0,"byteLength":144},{"buffer":4,"byteOffset":0,"byteLength":96},{"buffer":5,"byteOffset":0,"byteLength":32},{"buffer":6,"byteOffset":0,"byteLength":96}]}