{
  "asset": {
    "version": "2.0",
    "generator": "THREE.GLTFExporter r183"
  },
  "scenes": [
    {
      "nodes": [
        0
      ]
    }
  ],
  "scene": 0,
  "nodes": [
    {
      "name": "metaverse_mannequin_root",
      "children": [
        1
      ]
    },
    {
      "name": "metaverse_mannequin_body",
      "mesh": 0,
      "children": [
        2
      ],
      "skin": 0
    },
    {
      "name": "humanoid_root",
      "children": [
        3
      ]
    },
    {
      "translation": [
        0,
        0.425,
        0
      ],
      "name": "hips",
      "children": [
        4,
        13,
        14
      ]
    },
    {
      "translation": [
        0,
        0.425,
        0
      ],
      "name": "spine",
      "children": [
        5
      ]
    },
    {
      "translation": [
        0,
        0.425,
        0
      ],
      "name": "chest",
      "children": [
        6,
        9,
        11
      ]
    },
    {
      "translation": [
        0,
        0.425,
        0
      ],
      "name": "neck",
      "children": [
        7
      ]
    },
    {
      "translation": [
        0,
        0.28,
        0
      ],
      "name": "head_socket",
      "children": [
        8
      ]
    },
    {
      "translation": [
        0,
        0.08,
        0
      ],
      "name": "metaverse_mannequin_head",
      "mesh": 1
    },
    {
      "translation": [
        -0.5,
        0.08,
        0
      ],
      "name": "hand_l_socket",
      "children": [
        10
      ]
    },
    {
      "rotation": [
        0,
        0,
        0.7071067811865475,
        0.7071067811865476
      ],
      "translation": [
        0.23,
        0,
        0
      ],
      "name": "metaverse_mannequin_left_arm",
      "mesh": 2
    },
    {
      "translation": [
        0.5,
        0.08,
        0
      ],
      "name": "hand_r_socket",
      "children": [
        12
      ]
    },
    {
      "rotation": [
        0,
        0,
        0.7071067811865475,
        0.7071067811865476
      ],
      "translation": [
        -0.23,
        0,
        0
      ],
      "name": "metaverse_mannequin_right_arm",
      "mesh": 3
    },
    {
      "translation": [
        0.22,
        -0.08,
        -0.12
      ],
      "name": "hip_socket"
    },
    {
      "translation": [
        0,
        0.02,
        -0.1
      ],
      "name": "seat_socket"
    }
  ],
  "bufferViews": [
    {
      "buffer": 0,
      "byteOffset": 0,
      "byteLength": 2220,
      "target": 34962,
      "byteStride": 12
    },
    {
      "buffer": 0,
      "byteOffset": 2220,
      "byteLength": 2220,
      "target": 34962,
      "byteStride": 12
    },
    {
      "buffer": 0,
      "byteOffset": 4440,
      "byteLength": 1480,
      "target": 34962,
      "byteStride": 8
    },
    {
      "buffer": 0,
      "byteOffset": 5920,
      "byteLength": 1480,
      "target": 34962,
      "byteStride": 8
    },
    {
      "buffer": 0,
      "byteOffset": 7400,
      "byteLength": 2960,
      "target": 34962,
      "byteStride": 16
    },
    {
      "buffer": 0,
      "byteOffset": 10360,
      "byteLength": 1560,
      "target": 34963
    },
    {
      "buffer": 0,
      "byteOffset": 11920,
      "byteLength": 2652,
      "target": 34962,
      "byteStride": 12
    },
    {
      "buffer": 0,
      "byteOffset": 14572,
      "byteLength": 2652,
      "target": 34962,
      "byteStride": 12
    },
    {
      "buffer": 0,
      "byteOffset": 17224,
      "byteLength": 1768,
      "target": 34962,
      "byteStride": 8
    },
    {
      "buffer": 0,
      "byteOffset": 18992,
      "byteLength": 2112,
      "target": 34963
    },
    {
      "buffer": 0,
      "byteOffset": 21104,
      "byteLength": 624,
      "target": 34962,
      "byteStride": 12
    },
    {
      "buffer": 0,
      "byteOffset": 21728,
      "byteLength": 624,
      "target": 34962,
      "byteStride": 12
    },
    {
      "buffer": 0,
      "byteOffset": 22352,
      "byteLength": 416,
      "target": 34962,
      "byteStride": 8
    },
    {
      "buffer": 0,
      "byteOffset": 22768,
      "byteLength": 192,
      "target": 34963
    },
    {
      "buffer": 0,
      "byteOffset": 22960,
      "byteLength": 624,
      "target": 34962,
      "byteStride": 12
    },
    {
      "buffer": 0,
      "byteOffset": 23584,
      "byteLength": 624,
      "target": 34962,
      "byteStride": 12
    },
    {
      "buffer": 0,
      "byteOffset": 24208,
      "byteLength": 416,
      "target": 34962,
      "byteStride": 8
    },
    {
      "buffer": 0,
      "byteOffset": 24624,
      "byteLength": 192,
      "target": 34963
    },
    {
      "buffer": 0,
      "byteOffset": 24816,
      "byteLength": 640
    },
    {
      "buffer": 0,
      "byteOffset": 25456,
      "byteLength": 12
    },
    {
      "buffer": 0,
      "byteOffset": 25468,
      "byteLength": 36
    },
    {
      "buffer": 0,
      "byteOffset": 25504,
      "byteLength": 12
    },
    {
      "buffer": 0,
      "byteOffset": 25516,
      "byteLength": 48
    },
    {
      "buffer": 0,
      "byteOffset": 25564,
      "byteLength": 12
    },
    {
      "buffer": 0,
      "byteOffset": 25576,
      "byteLength": 48
    },
    {
      "buffer": 0,
      "byteOffset": 25624,
      "byteLength": 12
    },
    {
      "buffer": 0,
      "byteOffset": 25636,
      "byteLength": 48
    }
  ],
  "buffers": [
    {
      "byteLength": 25684,
      "uri": "data:application/octet-stream;base64,"
    }
  ],
  "accessors": [
    {
      "bufferView": 0,
      "componentType": 5126,
      "count": 185,
      "max": [
        0.26629582047462463,
        1.7000000476837158,
        0.2800000011920929
      ],
      "min": [
        -0.26629582047462463,
        -2.3841858265427618e-8,
        -0.2800000011920929
      ],
      "type": "VEC3"
    },
    {
      "bufferView": 1,
      "componentType": 5126,
      "count": 185,
      "max": [
        0.9504647254943848,
        1,
        0.9993777275085449
      ],
      "min": [
        -0.9504647254943848,
        -1,
        -0.9993777275085449
      ],
      "type": "VEC3"
    },
    {
      "bufferView": 2,
      "componentType": 5126,
      "count": 185,
      "max": [
        1,
        1
      ],
      "min": [
        0,
        0
      ],
      "type": "VEC2"
    },
    {
      "bufferView": 3,
      "componentType": 5123,
      "count": 185,
      "max": [
        3,
        4,
        0,
        0
      ],
      "min": [
        0,
        1,
        0,
        0
      ],
      "type": "VEC4"
    },
    {
      "bufferView": 4,
      "componentType": 5126,
      "count": 185,
      "max": [
        1,
        1,
        0,
        0
      ],
      "min": [
        -2.220446049250313e-16,
        0,
        0,
        0
      ],
      "type": "VEC4"
    },
    {
      "bufferView": 5,
      "componentType": 5123,
      "count": 780,
      "max": [
        184
      ],
      "min": [
        0
      ],
      "type": "SCALAR"
    },
    {
      "bufferView": 6,
      "componentType": 5126,
      "count": 221,
      "max": [
        0.1599999964237213,
        0.1599999964237213,
        0.1599999964237213
      ],
      "min": [
        -0.1599999964237213,
        -0.1599999964237213,
        -0.1599999964237213
      ],
      "type": "VEC3"
    },
    {
      "bufferView": 7,
      "componentType": 5126,
      "count": 221,
      "max": [
        1,
        1,
        1
      ],
      "min": [
        -1,
        -1,
        -1
      ],
      "type": "VEC3"
    },
    {
      "bufferView": 8,
      "componentType": 5126,
      "count": 221,
      "max": [
        1.03125,
        1
      ],
      "min": [
        -0.03125,
        0
      ],
      "type": "VEC2"
    },
    {
      "bufferView": 9,
      "componentType": 5123,
      "count": 1056,
      "max": [
        220
      ],
      "min": [
        0
      ],
      "type": "SCALAR"
    },
    {
      "bufferView": 10,
      "componentType": 5126,
      "count": 52,
      "max": [
        0.054999999701976776,
        0.27000001072883606,
        0.054999999701976776
      ],
      "min": [
        -0.054999999701976776,
        -0.27000001072883606,
        -0.054999999701976776
      ],
      "type": "VEC3"
    },
    {
      "bufferView": 11,
      "componentType": 5126,
      "count": 52,
      "max": [
        0.999828577041626,
        1,
        0.999828577041626
      ],
      "min": [
        -0.999828577041626,
        -1,
        -0.999828577041626
      ],
      "type": "VEC3"
    },
    {
      "bufferView": 12,
      "componentType": 5126,
      "count": 52,
      "max": [
        1,
        1
      ],
      "min": [
        0,
        0
      ],
      "type": "VEC2"
    },
    {
      "bufferView": 13,
      "componentType": 5123,
      "count": 96,
      "max": [
        51
      ],
      "min": [
        0
      ],
      "type": "SCALAR"
    },
    {
      "bufferView": 14,
      "componentType": 5126,
      "count": 52,
      "max": [
        0.054999999701976776,
        0.27000001072883606,
        0.054999999701976776
      ],
      "min": [
        -0.054999999701976776,
        -0.27000001072883606,
        -0.054999999701976776
      ],
      "type": "VEC3"
    },
    {
      "bufferView": 15,
      "componentType": 5126,
      "count": 52,
      "max": [
        0.999828577041626,
        1,
        0.999828577041626
      ],
      "min": [
        -0.999828577041626,
        -1,
        -0.999828577041626
      ],
      "type": "VEC3"
    },
    {
      "bufferView": 16,
      "componentType": 5126,
      "count": 52,
      "max": [
        1,
        1
      ],
      "min": [
        0,
        0
      ],
      "type": "VEC2"
    },
    {
      "bufferView": 17,
      "componentType": 5123,
      "count": 96,
      "max": [
        51
      ],
      "min": [
        0
      ],
      "type": "SCALAR"
    },
    {
      "bufferView": 18,
      "componentType": 5126,
      "count": 10,
      "max": [
        1,
        0,
        0,
        0,
        0,
        1,
        0,
        0,
        0,
        0,
        1,
        0,
        0.5,
        0,
        0.11999999731779099,
        1
      ],
      "min": [
        1,
        0,
        0,
        0,
        0,
        1,
        0,
        0,
        0,
        0,
        1,
        0,
        -0.5,
        -1.9800000190734863,
        0,
        1
      ],
      "type": "MAT4"
    },
    {
      "bufferView": 19,
      "componentType": 5126,
      "count": 3,
      "max": [
        2.4000000953674316
      ],
      "min": [
        0
      ],
      "type": "SCALAR"
    },
    {
      "bufferView": 20,
      "componentType": 5126,
      "count": 3,
      "max": [
        0,
        0.029999999329447746,
        0
      ],
      "min": [
        0,
        0,
        0
      ],
      "type": "VEC3"
    },
    {
      "bufferView": 21,
      "componentType": 5126,
      "count": 3,
      "max": [
        2.4000000953674316
      ],
      "min": [
        0
      ],
      "type": "SCALAR"
    },
    {
      "bufferView": 22,
      "componentType": 5126,
      "count": 3,
      "max": [
        0.014744059182703495,
        0.009996708482503891,
        0.02484338916838169,
        0.9996375441551208
      ],
      "min": [
        -0.00024996980209834874,
        -0.010370512492954731,
        -0.02499614655971527,
        0.9995288252830505
      ],
      "type": "VEC4"
    },
    {
      "bufferView": 23,
      "componentType": 5126,
      "count": 3,
      "max": [
        2.4000000953674316
      ],
      "min": [
        0
      ],
      "type": "SCALAR"
    },
    {
      "bufferView": 24,
      "componentType": 5126,
      "count": 3,
      "max": [
        0.024872513487935066,
        0.0232215765863657,
        -0.09980221837759018,
        0.9946932196617126
      ],
      "min": [
        -0.013619833625853062,
        0.002495575463399291,
        -0.14963112771511078,
        0.9883753061294556
      ],
      "type": "VEC4"
    },
    {
      "bufferView": 25,
      "componentType": 5126,
      "count": 3,
      "max": [
        2.4000000953674316
      ],
      "min": [
        0
      ],
      "type": "SCALAR"
    },
    {
      "bufferView": 26,
      "componentType": 5126,
      "count": 3,
      "max": [
        0.024872513487935066,
        -0.002495575463399291,
        0.14963112771511078,
        0.9946932196617126
      ],
      "min": [
        -0.013619833625853062,
        -0.0232215765863657,
        0.09980221837759018,
        0.9883753061294556
      ],
      "type": "VEC4"
    }
  ],
  "materials": [
    {
      "pbrMetallicRoughness": {
        "baseColorFactor": [
          0.5775804404214573,
          0.6583748172725346,
          0.7835377915215659,
          1
        ],
        "metallicFactor": 0.08,
        "roughnessFactor": 0.72
      }
    },
    {
      "pbrMetallicRoughness": {
        "baseColorFactor": [
          0.8713671191959567,
          0.6938717612856897,
          0.5394794890033748,
          1
        ],
        "metallicFactor": 0.02,
        "roughnessFactor": 0.9
      }
    },
    {
      "pbrMetallicRoughness": {
        "baseColorFactor": [
          0.2541520943200296,
          0.3712376804636741,
          0.5775804404214573,
          1
        ],
        "metallicFactor": 0.04,
        "roughnessFactor": 0.78
      }
    },
    {
      "pbrMetallicRoughness": {
        "baseColorFactor": [
          0.2541520943200296,
          0.3712376804636741,
          0.5775804404214573,
          1
        ],
        "metallicFactor": 0.04,
        "roughnessFactor": 0.78
      }
    }
  ],
  "meshes": [
    {
      "primitives": [
        {
          "mode": 4,
          "attributes": {
            "POSITION": 0,
            "NORMAL": 1,
            "TEXCOORD_0": 2,
            "JOINTS_0": 3,
            "WEIGHTS_0": 4
          },
          "indices": 5,
          "material": 0
        }
      ]
    },
    {
      "primitives": [
        {
          "mode": 4,
          "attributes": {
            "POSITION": 6,
            "NORMAL": 7,
            "TEXCOORD_0": 8
          },
          "indices": 9,
          "material": 1
        }
      ]
    },
    {
      "primitives": [
        {
          "mode": 4,
          "attributes": {
            "POSITION": 10,
            "NORMAL": 11,
            "TEXCOORD_0": 12
          },
          "indices": 13,
          "material": 2
        }
      ]
    },
    {
      "primitives": [
        {
          "mode": 4,
          "attributes": {
            "POSITION": 14,
            "NORMAL": 15,
            "TEXCOORD_0": 16
          },
          "indices": 17,
          "material": 3
        }
      ]
    }
  ],
  "skins": [
    {
      "inverseBindMatrices": 18,
      "joints": [
        2,
        3,
        4,
        5,
        6,
        7,
        9,
        11,
        13,
        14
      ],
      "skeleton": 2
    }
  ],
  "animations": [
    {
      "name": "idle",
      "samplers": [
        {
          "input": 19,
          "output": 20,
          "interpolation": "LINEAR"
        },
        {
          "input": 21,
          "output": 22,
          "interpolation": "LINEAR"
        },
        {
          "input": 23,
          "output": 24,
          "interpolation": "LINEAR"
        },
        {
          "input": 25,
          "output": 26,
          "interpolation": "LINEAR"
        }
      ],
      "channels": [
        {
          "sampler": 0,
          "target": {
            "node": 2,
            "path": "translation"
          }
        },
        {
          "sampler": 1,
          "target": {
            "node": 5,
            "path": "rotation"
          }
        },
        {
          "sampler": 2,
          "target": {
            "node": 11,
            "path": "rotation"
          }
        },
        {
          "sampler": 3,
          "target": {
            "node": 9,
            "path": "rotation"
          }
        }
      ]
    }
  ]
}
