{"scene":0,"scenes":[{"nodes":[0]}],"asset":{"version":"2.0","generator":"https://github.com/mikedh/trimesh"},"accessors":[{"componentType":5125,"type":"SCALAR","bufferView":0,"count":384,"max":[65],"min":[0]},{"componentType":5126,"type":"VEC3","byteOffset":0,"bufferView":1,"count":66,"max":[0.11999999731779099,0.017999999225139618,0.017999999225139618],"min":[-0.11999999731779099,-0.017999999225139618,-0.017999999225139618]},{"componentType":5121,"normalized":true,"type":"VEC4","byteOffset":0,"bufferView":2,"count":66,"max":[42,44,48,255],"min":[42,44,48,255]},{"componentType":5125,"type":"SCALAR","bufferView":3,"count":384,"max":[65],"min":[0]},{"componentType":5126,"type":"VEC3","byteOffset":0,"bufferView":4,"count":66,"max":[0.014999999664723873,0.020999999716877937,0.020999999716877937],"min":[-0.014999999664723873,-0.020999999716877937,-0.020999999716877937]},{"componentType":5121,"normalized":true,"type":"VEC4","byteOffset":0,"bufferView":5,"count":66,"max":[84,92,100,255],"min":[84,92,100,255]},{"componentType":5125,"type":"SCALAR","bufferView":6,"count":384,"max":[65],"min":[0]},{"componentType":5126,"type":"VEC3","byteOffset":0,"bufferView":7,"count":66,"max":[0.009999999776482582,0.01600000075995922,0.01600000075995922],"min":[-0.009999999776482582,-0.01600000075995922,-0.01600000075995922]}],"meshes":[{"name":"metaverse_long_suppressor_body_geom","primitives":[{"attributes":{"POSITION":1,"COLOR_0":2},"indices":0,"mode":4}]},{"name":"metaverse_long_suppressor_rear_collar_geom","primitives":[{"attributes":{"POSITION":4,"COLOR_0":5},"indices":3,"mode":4}]},{"name":"metaverse_long_suppressor_front_cap_geom","primitives":[{"attributes":{"POSITION":7,"COLOR_0":5},"indices":6,"mode":4}]}],"nodes":[{"name":"metaverse_long_suppressor_root","children":[1,2,3]},{"name":"metaverse_long_suppressor_body","mesh":0,"matrix":[1.0,0.0,-0.0,0.0,0.0,1.0,0.0,0.0,0.0,0.0,1.0,0.0,0.12,0.0,0.0,1.0]},{"name":"metaverse_long_suppressor_rear_collar","mesh":1,"matrix":[1.0,0.0,-0.0,0.0,0.0,1.0,0.0,0.0,0.0,0.0,1.0,0.0,0.02,0.0,0.0,1.0]},{"name":"metaverse_long_suppressor_front_cap","mesh":2,"matrix":[1.0,0.0,-0.0,0.0,0.0,1.0,0.0,0.0,0.0,0.0,1.0,0.0,0.24,0.0,0.0,1.0]}],"buffers":[{"uri":"data:application/octet-stream;base64,","byteLength":1536},{"uri":"data:application/octet-stream;base64,","byteLength":792},{"uri":"data:application/octet-stream;base64,","byteLength":264},{"uri":"data:application/octet-stream;base64,","byteLength":1536},{"uri":"data:application/octet-stream;base64,","byteLength":792},{"uri":"data:application/octet-stream;base64,","byteLength":264},{"uri":"data:application/octet-stream;base64,","byteLength":1536},{"uri":"data:application/octet-stream;base64,","byteLength":792}],"bufferViews":[{"buffer":0,"byteOffset":0,"byteLength":1536},{"buffer":1,"byteOffset":0,"byteLength":792},{"buffer":2,"byteOffset":0,"byteLength":264},{"buffer":3,"byteOffset":0,"byteLength":1536},{"buffer":4,"byteOffset":0,"byteLength":792},{"buffer":5,"byteOffset":0,"byteLength":264},{"buffer":6,"byteOffset":0,"byteLength":1536},{"buffer":7,"byteOffset":0,"byteLength":792}]}