{"scene":0,"scenes":[{"nodes":[0]}],"asset":{"version":"2.0","generator":"https://github.com/mikedh/trimesh"},"accessors":[{"componentType":5125,"type":"SCALAR","bufferView":0,"count":36,"max":[7],"min":[0]},{"componentType":5126,"type":"VEC3","byteOffset":0,"bufferView":1,"count":8,"max":[0.06499999761581421,0.009999999776482582,0.017999999225139618],"min":[-0.06499999761581421,-0.009999999776482582,-0.017999999225139618]},{"componentType":5121,"normalized":true,"type":"VEC4","byteOffset":0,"bufferView":2,"count":8,"max":[84,92,100,255],"min":[84,92,100,255]},{"componentType":5126,"type":"VEC3","byteOffset":0,"bufferView":3,"count":8,"max":[0.04500000178813934,0.008999999612569809,0.014999999664723873],"min":[-0.04500000178813934,-0.008999999612569809,-0.014999999664723873]},{"componentType":5121,"normalized":true,"type":"VEC4","byteOffset":0,"bufferView":4,"count":8,"max":[134,142,150,255],"min":[134,142,150,255]},{"componentType":5126,"type":"VEC3","byteOffset":0,"bufferView":5,"count":8,"max":[0.012000000104308128,0.017000000923871994,0.017999999225139618],"min":[-0.012000000104308128,-0.017000000923871994,-0.017999999225139618]},{"componentType":5125,"type":"SCALAR","bufferView":6,"count":384,"max":[65],"min":[0]},{"componentType":5126,"type":"VEC3","byteOffset":0,"bufferView":7,"count":66,"max":[0.18000000715255737,0.01899999938905239,0.01899999938905239],"min":[-0.18000000715255737,-0.01899999938905239,-0.01899999938905239]},{"componentType":5121,"normalized":true,"type":"VEC4","byteOffset":0,"bufferView":8,"count":66,"max":[42,44,48,255],"min":[42,44,48,255]},{"componentType":5125,"type":"SCALAR","bufferView":9,"count":2976,"max":[556],"min":[0]},{"componentType":5126,"type":"VEC3","byteOffset":0,"bufferView":10,"count":558,"max":[0.11400000005960464,0.023969195783138275,0.023876864463090897],"min":[-0.024000000208616257,-0.023969195783138275,-0.024000000208616257]},{"componentType":5121,"normalized":true,"type":"VEC4","byteOffset":0,"bufferView":11,"count":558,"max":[42,44,48,255],"min":[0,0,0,0]},{"componentType":5125,"type":"SCALAR","bufferView":12,"count":768,"max":[127],"min":[0]},{"componentType":5126,"type":"VEC3","byteOffset":0,"bufferView":13,"count":128,"max":[0.00800000037997961,0.026000000536441803,0.026000000536441803],"min":[-0.00800000037997961,-0.026000000536441803,-0.026000000536441803]},{"componentType":5121,"normalized":true,"type":"VEC4","byteOffset":0,"bufferView":14,"count":128,"max":[84,92,100,255],"min":[84,92,100,255]},{"componentType":5126,"type":"VEC3","byteOffset":0,"bufferView":15,"count":558,"max":[0.1379999965429306,0.027964062988758087,0.027856340631842613],"min":[-0.02800000086426735,-0.027964062988758087,-0.02800000086426735]},{"componentType":5125,"type":"SCALAR","bufferView":16,"count":384,"max":[65],"min":[0]},{"componentType":5126,"type":"VEC3","byteOffset":0,"bufferView":17,"count":66,"max":[0.014999999664723873,0.012000000104308128,0.012000000104308128],"min":[-0.014999999664723873,-0.012000000104308128,-0.012000000104308128]},{"componentType":5121,"normalized":true,"type":"VEC4","byteOffset":0,"bufferView":18,"count":66,"max":[134,142,150,255],"min":[134,142,150,255]},{"componentType":5125,"type":"SCALAR","bufferView":19,"count":384,"max":[65],"min":[0]},{"componentType":5126,"type":"VEC3","byteOffset":0,"bufferView":20,"count":66,"max":[0.012000000104308128,0.009999999776482582,0.009999999776482582],"min":[-0.012000000104308128,-0.009999999776482582,-0.009999999776482582]},{"componentType":5126,"type":"VEC3","byteOffset":0,"bufferView":21,"count":8,"max":[0.0020000000949949026,0.014000000432133675,0.014000000432133675],"min":[-0.0020000000949949026,-0.014000000432133675,-0.014000000432133675]},{"componentType":5121,"normalized":true,"type":"VEC4","byteOffset":0,"bufferView":22,"count":8,"max":[96,160,188,180],"min":[96,160,188,180]},{"componentType":5126,"type":"VEC3","byteOffset":0,"bufferView":23,"count":8,"max":[0.0020000000949949026,0.009999999776482582,0.009999999776482582],"min":[-0.0020000000949949026,-0.009999999776482582,-0.009999999776482582]}],"meshes":[{"name":"metaverse_6x_variable_scope_mount_block_geom","primitives":[{"attributes":{"POSITION":1,"COLOR_0":2},"indices":0,"mode":4}]},{"name":"metaverse_6x_variable_scope_cantilever_geom","primitives":[{"attributes":{"POSITION":3,"COLOR_0":4},"indices":0,"mode":4}]},{"name":"metaverse_6x_variable_scope_rear_ring_geom","primitives":[{"attributes":{"POSITION":5,"COLOR_0":4},"indices":0,"mode":4}]},{"name":"metaverse_6x_variable_scope_front_ring_geom","primitives":[{"attributes":{"POSITION":5,"COLOR_0":4},"indices":0,"mode":4}]},{"name":"metaverse_6x_variable_scope_tube_geom","primitives":[{"attributes":{"POSITION":7,"COLOR_0":8},"indices":6,"mode":4}]},{"name":"metaverse_6x_variable_scope_ocular_bell_geom","primitives":[{"attributes":{"POSITION":10,"COLOR_0":11},"indices":9,"mode":4}]},{"name":"metaverse_6x_variable_scope_mag_ring_geom","primitives":[{"attributes":{"POSITION":13,"COLOR_0":14},"indices":12,"mode":4}]},{"name":"metaverse_6x_variable_scope_objective_bell_geom","primitives":[{"attributes":{"POSITION":15,"COLOR_0":11},"indices":9,"mode":4}]},{"name":"metaverse_6x_variable_scope_turret_vertical_geom","primitives":[{"attributes":{"POSITION":17,"COLOR_0":18},"indices":16,"mode":4}]},{"name":"metaverse_6x_variable_scope_turret_side_geom","primitives":[{"attributes":{"POSITION":20,"COLOR_0":18},"indices":19,"mode":4}]},{"name":"metaverse_6x_variable_scope_objective_lens_geom","primitives":[{"attributes":{"POSITION":21,"COLOR_0":22},"indices":0,"mode":4}]},{"name":"metaverse_6x_variable_scope_ocular_lens_geom","primitives":[{"attributes":{"POSITION":23,"COLOR_0":22},"indices":0,"mode":4}]}],"nodes":[{"name":"metaverse_6x_variable_scope_root","children":[1,2,3,4,5,6,7,8,9,10,11,12,13,14,15,16,17,18]},{"name":"metaverse_6x_variable_scope_optic_forward_marker","matrix":[1.0,0.0,-0.0,0.0,0.0,1.0,0.0,0.0,0.0,0.0,1.0,0.0,1.0,0.0,0.0,1.0]},{"name":"metaverse_6x_variable_scope_optic_up_marker","matrix":[1.0,0.0,-0.0,0.0,0.0,1.0,0.0,0.0,0.0,0.0,1.0,0.0,0.0,1.0,0.0,1.0]},{"name":"metaverse_6x_variable_scope_eye_box_anchor","matrix":[1.0,0.0,-0.0,0.0,0.0,1.0,0.0,0.0,0.0,0.0,1.0,0.0,-0.314,0.05,0.0,1.0]},{"name":"metaverse_6x_variable_scope_reticle_plane","matrix":[1.0,0.0,-0.0,0.0,0.0,1.0,0.0,0.0,0.0,0.0,1.0,0.0,-0.06,0.05,0.0,1.0]},{"name":"metaverse_6x_variable_scope_ocular_lens_marker","matrix":[1.0,0.0,-0.0,0.0,0.0,1.0,0.0,0.0,0.0,0.0,1.0,0.0,-0.28400000000000003,0.05,0.0,1.0]},{"name":"metaverse_6x_variable_scope_objective_lens_marker","matrix":[1.0,0.0,-0.0,0.0,0.0,1.0,0.0,0.0,0.0,0.0,1.0,0.0,0.225,0.05,0.0,1.0]},{"name":"metaverse_6x_variable_scope_mount_block","mesh":0,"matrix":[1.0,0.0,-0.0,0.0,0.0,1.0,0.0,0.0,0.0,0.0,1.0,0.0,0.0,0.01,0.0,1.0]},{"name":"metaverse_6x_variable_scope_cantilever","mesh":1,"matrix":[1.0,0.0,-0.0,0.0,0.0,1.0,0.0,0.0,0.0,0.0,1.0,0.0,-0.09,0.02,0.0,1.0]},{"name":"metaverse_6x_variable_scope_rear_ring","mesh":2,"matrix":[1.0,0.0,-0.0,0.0,0.0,1.0,0.0,0.0,0.0,0.0,1.0,0.0,-0.145,0.026,0.0,1.0]},{"name":"metaverse_6x_variable_scope_front_ring","mesh":3,"matrix":[1.0,0.0,-0.0,0.0,0.0,1.0,0.0,0.0,0.0,0.0,1.0,0.0,-0.015,0.026,0.0,1.0]},{"name":"metaverse_6x_variable_scope_tube","mesh":4,"matrix":[1.0,0.0,-0.0,0.0,0.0,1.0,0.0,0.0,0.0,0.0,1.0,0.0,-0.08,0.05,0.0,1.0]},{"name":"metaverse_6x_variable_scope_ocular_bell","mesh":5,"matrix":[1.0,0.0,-0.0,0.0,0.0,1.0,0.0,0.0,0.0,0.0,1.0,0.0,-0.255,0.05,0.0,1.0]},{"name":"metaverse_6x_variable_scope_mag_ring","mesh":6,"matrix":[1.0,0.0,-0.0,0.0,0.0,1.0,0.0,0.0,0.0,0.0,1.0,0.0,-0.18,0.05,0.0,1.0]},{"name":"metaverse_6x_variable_scope_objective_bell","mesh":7,"matrix":[1.0,0.0,-0.0,0.0,0.0,1.0,0.0,0.0,0.0,0.0,1.0,0.0,0.16,0.05,0.0,1.0]},{"name":"metaverse_6x_variable_scope_turret_vertical","mesh":8,"matrix":[6.123233995736766e-17,1.0,-0.0,0.0,-1.0,6.123233995736766e-17,0.0,0.0,0.0,0.0,1.0,0.0,-0.06,0.08,0.0,1.0]},{"name":"metaverse_6x_variable_scope_turret_side","mesh":9,"matrix":[1.0,0.0,-0.0,0.0,0.0,1.0,0.0,0.0,0.0,0.0,1.0,0.0,-0.06,0.05,-0.031,1.0]},{"name":"metaverse_6x_variable_scope_objective_lens","mesh":10,"matrix":[1.0,0.0,-0.0,0.0,0.0,1.0,0.0,0.0,0.0,0.0,1.0,0.0,0.225,0.05,0.0,1.0]},{"name":"metaverse_6x_variable_scope_ocular_lens","mesh":11,"matrix":[1.0,0.0,-0.0,0.0,0.0,1.0,0.0,0.0,0.0,0.0,1.0,0.0,-0.304,0.05,0.0,1.0]}],"buffers":[{"uri":"data:application/octet-stream;base64,","byteLength":144},{"uri":"data:application/octet-stream;base64,","byteLength":96},{"uri":"data:application/octet-stream;base64,","byteLength":32},{"uri":"data:application/octet-stream;base64,","byteLength":96},{"uri":"data:application/octet-stream;base64,","byteLength":32},{"uri":"data:application/octet-stream;base64,","byteLength":96},{"uri":"data:application/octet-stream;base64,","byteLength":1536},{"uri":"data:application/octet-stream;base64,","byteLength":792},{"uri":"data:application/octet-stream;base64,","byteLength":264},{"uri":"data:application/octet-stream;base64,","byteLength":11904},{"uri":"data:application/octet-stream;base64,","byteLength":6696},{"uri":"data:application/octet-stream;base64,","byteLength":2232},{"uri":"data:application/octet-stream;base64,","byteLength":3072},{"uri":"data:application/octet-stream;base64,","byteLength":1536},{"uri":"data:application/octet-stream;base64,","byteLength":512},{"uri":"data:application/octet-stream;base64,","byteLength":6696},{"uri":"data:application/octet-stream;base64,","byteLength":1536},{"uri":"data:application/octet-stream;base64,","byteLength":792},{"uri":"data:application/octet-stream;base64,","byteLength":264},{"uri":"data:application/octet-stream;base64,","byteLength":1536},{"uri":"data:application/octet-stream;base64,","byteLength":792},{"uri":"data:application/octet-stream;base64,","byteLength":96},{"uri":"data:application/octet-stream;base64,","byteLength":32},{"uri":"data:application/octet-stream;base64,","byteLength":96}],"bufferViews":[{"buffer":0,"byteOffset":0,"byteLength":144},{"buffer":1,"byteOffset":0,"byteLength":96},{"buffer":2,"byteOffset":0,"byteLength":32},{"buffer":3,"byteOffset":0,"byteLength":96},{"buffer":4,"byteOffset":0,"byteLength":32},{"buffer":5,"byteOffset":0,"byteLength":96},{"buffer":6,"byteOffset":0,"byteLength":1536},{"buffer":7,"byteOffset":0,"byteLength":792},{"buffer":8,"byteOffset":0,"byteLength":264},{"buffer":9,"byteOffset":0,"byteLength":11904},{"buffer":10,"byteOffset":0,"byteLength":6696},{"buffer":11,"byteOffset":0,"byteLength":2232},{"buffer":12,"byteOffset":0,"byteLength":3072},{"buffer":13,"byteOffset":0,"byteLength":1536},{"buffer":14,"byteOffset":0,"byteLength":512},{"buffer":15,"byteOffset":0,"byteLength":6696},{"buffer":16,"byteOffset":0,"byteLength":1536},{"buffer":17,"byteOffset":0,"byteLength":792},{"buffer":18,"byteOffset":0,"byteLength":264},{"buffer":19,"byteOffset":0,"byteLength":1536},{"buffer":20,"byteOffset":0,"byteLength":792},{"buffer":21,"byteOffset":0,"byteLength":96},{"buffer":22,"byteOffset":0,"byteLength":32},{"buffer":23,"byteOffset":0,"byteLength":96}]}