{"scene":0,"scenes":[{"nodes":[0]}],"asset":{"version":"2.0","generator":"https://github.com/mikedh/trimesh"},"accessors":[{"componentType":5125,"type":"SCALAR","bufferView":0,"count":36,"max":[7],"min":[0]},{"componentType":5126,"type":"VEC3","byteOffset":0,"bufferView":1,"count":8,"max":[0.017000000923871994,0.006000000052154064,0.012000000104308128],"min":[-0.017000000923871994,-0.006000000052154064,-0.012000000104308128]},{"componentType":5121,"normalized":true,"type":"VEC4","byteOffset":0,"bufferView":2,"count":8,"max":[84,92,100,255],"min":[84,92,100,255]},{"componentType":5126,"type":"VEC3","byteOffset":0,"bufferView":3,"count":8,"max":[0.007000000216066837,0.014000000432133675,0.004999999888241291],"min":[-0.007000000216066837,-0.014000000432133675,-0.004999999888241291]},{"componentType":5121,"normalized":true,"type":"VEC4","byteOffset":0,"bufferView":4,"count":8,"max":[134,142,150,255],"min":[134,142,150,255]},{"componentType":5125,"type":"SCALAR","bufferView":5,"count":768,"max":[127],"min":[0]},{"componentType":5126,"type":"VEC3","byteOffset":0,"bufferView":6,"count":128,"max":[0.001500000013038516,0.008999999612569809,0.008999999612569809],"min":[-0.001500000013038516,-0.008999999612569809,-0.008999999612569809]},{"componentType":5121,"normalized":true,"type":"VEC4","byteOffset":0,"bufferView":7,"count":128,"max":[134,142,150,255],"min":[134,142,150,255]},{"componentType":5126,"type":"VEC3","byteOffset":0,"bufferView":8,"count":8,"max":[0.003000000026077032,0.008999999612569809,0.0024999999441206455],"min":[-0.003000000026077032,-0.008999999612569809,-0.0024999999441206455]}],"meshes":[{"name":"metaverse_micro_aperture_rear_sight_base_geom","primitives":[{"attributes":{"POSITION":1,"COLOR_0":2},"indices":0,"mode":4}]},{"name":"metaverse_micro_aperture_rear_sight_frame_geom","primitives":[{"attributes":{"POSITION":3,"COLOR_0":4},"indices":0,"mode":4}]},{"name":"metaverse_micro_aperture_rear_sight_ring_geom","primitives":[{"attributes":{"POSITION":6,"COLOR_0":7},"indices":5,"mode":4}]},{"name":"metaverse_micro_aperture_rear_sight_wing_left_geom","primitives":[{"attributes":{"POSITION":8,"COLOR_0":4},"indices":0,"mode":4}]},{"name":"metaverse_micro_aperture_rear_sight_wing_right_geom","primitives":[{"attributes":{"POSITION":8,"COLOR_0":4},"indices":0,"mode":4}]}],"nodes":[{"name":"metaverse_micro_aperture_rear_sight_root","children":[1,2,3,4,5]},{"name":"metaverse_micro_aperture_rear_sight_base","mesh":0,"matrix":[1.0,0.0,-0.0,0.0,0.0,1.0,0.0,0.0,0.0,0.0,1.0,0.0,0.0,0.006,0.0,1.0]},{"name":"metaverse_micro_aperture_rear_sight_frame","mesh":1,"matrix":[1.0,0.0,-0.0,0.0,0.0,1.0,0.0,0.0,0.0,0.0,1.0,0.0,0.0,0.022,0.0,1.0]},{"name":"metaverse_micro_aperture_rear_sight_ring","mesh":2,"matrix":[1.0,0.0,-0.0,0.0,0.0,1.0,0.0,0.0,0.0,0.0,1.0,0.0,0.0,0.026,0.0,1.0]},{"name":"metaverse_micro_aperture_rear_sight_wing_left","mesh":3,"matrix":[1.0,0.0,-0.0,0.0,0.0,1.0,0.0,0.0,0.0,0.0,1.0,0.0,-0.012,0.018,0.0,1.0]},{"name":"metaverse_micro_aperture_rear_sight_wing_right","mesh":4,"matrix":[1.0,0.0,-0.0,0.0,0.0,1.0,0.0,0.0,0.0,0.0,1.0,0.0,0.012,0.018,0.0,1.0]}],"buffers":[{"uri":"data:application/octet-stream;base64,","byteLength":144},{"uri":"data:application/octet-stream;base64,","byteLength":96},{"uri":"data:application/octet-stream;base64,","byteLength":32},{"uri":"data:application/octet-stream;base64,","byteLength":96},{"uri":"data:application/octet-stream;base64,","byteLength":32},{"uri":"data:application/octet-stream;base64,","byteLength":3072},{"uri":"data:application/octet-stream;base64,","byteLength":1536},{"uri":"data:application/octet-stream;base64,","byteLength":512},{"uri":"data:application/octet-stream;base64,","byteLength":96}],"bufferViews":[{"buffer":0,"byteOffset":0,"byteLength":144},{"buffer":1,"byteOffset":0,"byteLength":96},{"buffer":2,"byteOffset":0,"byteLength":32},{"buffer":3,"byteOffset":0,"byteLength":96},{"buffer":4,"byteOffset":0,"byteLength":32},{"buffer":5,"byteOffset":0,"byteLength":3072},{"buffer":6,"byteOffset":0,"byteLength":1536},{"buffer":7,"byteOffset":0,"byteLength":512},{"buffer":8,"byteOffset":0,"byteLength":96}]}