{"scene":0,"scenes":[{"nodes":[0]}],"asset":{"version":"2.0","generator":"https://github.com/mikedh/trimesh"},"accessors":[{"componentType":5125,"type":"SCALAR","bufferView":0,"count":288,"max":[49],"min":[0]},{"componentType":5126,"type":"VEC3","byteOffset":0,"bufferView":1,"count":50,"max":[0.03999999910593033,0.01600000075995922,0.01600000075995922],"min":[-0.03999999910593033,-0.01600000075995922,-0.01600000075995922]},{"componentType":5121,"normalized":true,"type":"VEC4","byteOffset":0,"bufferView":2,"count":50,"max":[84,92,100,255],"min":[84,92,100,255]},{"componentType":5125,"type":"SCALAR","bufferView":3,"count":144,"max":[25],"min":[0]},{"componentType":5126,"type":"VEC3","byteOffset":0,"bufferView":4,"count":26,"max":[0.029999999329447746,0.012000000104308128,0.012000000104308128],"min":[0.0,-0.012000000104308128,-0.012000000104308128]},{"componentType":5121,"normalized":true,"type":"VEC4","byteOffset":0,"bufferView":5,"count":26,"max":[134,142,150,255],"min":[134,142,150,255]}],"meshes":[{"name":"metaverse_full_choke_body_geom","extras":{"shape":"cylinder","height":0.08,"radius":0.016,"processed":true},"primitives":[{"attributes":{"POSITION":1,"COLOR_0":2},"indices":0,"mode":4}]},{"name":"metaverse_full_choke_taper_geom","extras":{"shape":"cone","radius":0.012,"height":0.03,"processed":true},"primitives":[{"attributes":{"POSITION":4,"COLOR_0":5},"indices":3,"mode":4}]}],"nodes":[{"name":"metaverse_full_choke_root","children":[1,2]},{"name":"metaverse_full_choke_body","mesh":0,"matrix":[1.0,0.0,-0.0,0.0,0.0,1.0,0.0,0.0,0.0,0.0,1.0,0.0,0.04,0.0,0.0,1.0]},{"name":"metaverse_full_choke_taper","mesh":1,"matrix":[1.0,0.0,-0.0,0.0,0.0,1.0,0.0,0.0,0.0,0.0,1.0,0.0,0.095,0.0,0.0,1.0]}],"buffers":[{"uri":"data:application/octet-stream;base64,","byteLength":1152},{"uri":"data:application/octet-stream;base64,","byteLength":600},{"uri":"data:application/octet-stream;base64,","byteLength":200},{"uri":"data:application/octet-stream;base64,","byteLength":576},{"uri":"data:application/octet-stream;base64,","byteLength":312},{"uri":"data:application/octet-stream;base64,","byteLength":104}],"bufferViews":[{"buffer":0,"byteOffset":0,"byteLength":1152},{"buffer":1,"byteOffset":0,"byteLength":600},{"buffer":2,"byteOffset":0,"byteLength":200},{"buffer":3,"byteOffset":0,"byteLength":576},{"buffer":4,"byteOffset":0,"byteLength":312},{"buffer":5,"byteOffset":0,"byteLength":104}]}