{"scene":0,"scenes":[{"nodes":[0]}],"asset":{"version":"2.0","generator":"https://github.com/mikedh/trimesh"},"accessors":[{"componentType":5125,"type":"SCALAR","bufferView":0,"count":36,"max":[7],"min":[0]},{"componentType":5126,"type":"VEC3","byteOffset":0,"bufferView":1,"count":8,"max":[0.01600000075995922,0.006000000052154064,0.010999999940395355],"min":[-0.01600000075995922,-0.006000000052154064,-0.010999999940395355]},{"componentType":5121,"normalized":true,"type":"VEC4","byteOffset":0,"bufferView":2,"count":8,"max":[84,92,100,255],"min":[84,92,100,255]},{"componentType":5126,"type":"VEC3","byteOffset":0,"bufferView":3,"count":8,"max":[0.006000000052154064,0.01899999938905239,0.004000000189989805],"min":[-0.006000000052154064,-0.01899999938905239,-0.004000000189989805]},{"componentType":5121,"normalized":true,"type":"VEC4","byteOffset":0,"bufferView":4,"count":8,"max":[134,142,150,255],"min":[134,142,150,255]},{"componentType":5126,"type":"VEC3","byteOffset":0,"bufferView":5,"count":8,"max":[0.003000000026077032,0.014999999664723873,0.003000000026077032],"min":[-0.003000000026077032,-0.014999999664723873,-0.003000000026077032]},{"componentType":5126,"type":"VEC3","byteOffset":0,"bufferView":6,"count":8,"max":[0.0020000000949949026,0.009999999776482582,0.0020000000949949026],"min":[-0.0020000000949949026,-0.009999999776482582,-0.0020000000949949026]},{"componentType":5121,"normalized":true,"type":"VEC4","byteOffset":0,"bufferView":7,"count":8,"max":[218,140,63,255],"min":[218,140,63,255]}],"meshes":[{"name":"metaverse_folding_front_sight_base_geom","primitives":[{"attributes":{"POSITION":1,"COLOR_0":2},"indices":0,"mode":4}]},{"name":"metaverse_folding_front_sight_tower_geom","primitives":[{"attributes":{"POSITION":3,"COLOR_0":4},"indices":0,"mode":4}]},{"name":"metaverse_folding_front_sight_hood_left_geom","primitives":[{"attributes":{"POSITION":5,"COLOR_0":4},"indices":0,"mode":4}]},{"name":"metaverse_folding_front_sight_hood_right_geom","primitives":[{"attributes":{"POSITION":5,"COLOR_0":4},"indices":0,"mode":4}]},{"name":"metaverse_folding_front_sight_post_geom","primitives":[{"attributes":{"POSITION":6,"COLOR_0":7},"indices":0,"mode":4}]}],"nodes":[{"name":"metaverse_folding_front_sight_root","children":[1,2,3,4,5]},{"name":"metaverse_folding_front_sight_base","mesh":0,"matrix":[1.0,0.0,-0.0,0.0,0.0,1.0,0.0,0.0,0.0,0.0,1.0,0.0,0.0,0.006,0.0,1.0]},{"name":"metaverse_folding_front_sight_tower","mesh":1,"matrix":[1.0,0.0,-0.0,0.0,0.0,1.0,0.0,0.0,0.0,0.0,1.0,0.0,0.0,0.026,0.0,1.0]},{"name":"metaverse_folding_front_sight_hood_left","mesh":2,"matrix":[1.0,0.0,-0.0,0.0,0.0,1.0,0.0,0.0,0.0,0.0,1.0,0.0,-0.008,0.026,0.0,1.0]},{"name":"metaverse_folding_front_sight_hood_right","mesh":3,"matrix":[1.0,0.0,-0.0,0.0,0.0,1.0,0.0,0.0,0.0,0.0,1.0,0.0,0.008,0.026,0.0,1.0]},{"name":"metaverse_folding_front_sight_post","mesh":4,"matrix":[1.0,0.0,-0.0,0.0,0.0,1.0,0.0,0.0,0.0,0.0,1.0,0.0,0.0,0.036,0.0,1.0]}],"buffers":[{"uri":"data:application/octet-stream;base64,","byteLength":144},{"uri":"data:application/octet-stream;base64,","byteLength":96},{"uri":"data:application/octet-stream;base64,","byteLength":32},{"uri":"data:application/octet-stream;base64,","byteLength":96},{"uri":"data:application/octet-stream;base64,","byteLength":32},{"uri":"data:application/octet-stream;base64,","byteLength":96},{"uri":"data:application/octet-stream;base64,","byteLength":96},{"uri":"data:application/octet-stream;base64,","byteLength":32}],"bufferViews":[{"buffer":0,"byteOffset":0,"byteLength":144},{"buffer":1,"byteOffset":0,"byteLength":96},{"buffer":2,"byteOffset":0,"byteLength":32},{"buffer":3,"byteOffset":0,"byteLength":96},{"buffer":4,"byteOffset":0,"byteLength":32},{"buffer":5,"byteOffset":0,"byteLength":96},{"buffer":6,"byteOffset":0,"byteLength":96},{"buffer":7,"byteOffset":0,"byteLength":32}]}