{"scene":0,"scenes":[{"nodes":[0]}],"asset":{"version":"2.0","generator":"https://github.com/mikedh/trimesh"},"accessors":[{"componentType":5125,"type":"SCALAR","bufferView":0,"count":36,"max":[7],"min":[0]},{"componentType":5126,"type":"VEC3","byteOffset":0,"bufferView":1,"count":8,"max":[0.07500000298023224,0.010999999940395355,0.01899999938905239],"min":[-0.07500000298023224,-0.010999999940395355,-0.01899999938905239]},{"componentType":5121,"normalized":true,"type":"VEC4","byteOffset":0,"bufferView":2,"count":8,"max":[84,92,100,255],"min":[84,92,100,255]},{"componentType":5126,"type":"VEC3","byteOffset":0,"bufferView":3,"count":8,"max":[0.029999999329447746,0.008999999612569809,0.014999999664723873],"min":[-0.029999999329447746,-0.008999999612569809,-0.014999999664723873]},{"componentType":5121,"normalized":true,"type":"VEC4","byteOffset":0,"bufferView":4,"count":8,"max":[134,142,150,255],"min":[134,142,150,255]},{"componentType":5126,"type":"VEC3","byteOffset":0,"bufferView":5,"count":8,"max":[0.012000000104308128,0.017999999225139618,0.01899999938905239],"min":[-0.012000000104308128,-0.017999999225139618,-0.01899999938905239]},{"componentType":5125,"type":"SCALAR","bufferView":6,"count":384,"max":[65],"min":[0]},{"componentType":5126,"type":"VEC3","byteOffset":0,"bufferView":7,"count":66,"max":[0.20000000298023224,0.01899999938905239,0.01899999938905239],"min":[-0.20000000298023224,-0.01899999938905239,-0.01899999938905239]},{"componentType":5121,"normalized":true,"type":"VEC4","byteOffset":0,"bufferView":8,"count":66,"max":[42,44,48,255],"min":[42,44,48,255]},{"componentType":5125,"type":"SCALAR","bufferView":9,"count":2976,"max":[556],"min":[0]},{"componentType":5126,"type":"VEC3","byteOffset":0,"bufferView":10,"count":558,"max":[0.11599999666213989,0.02596662938594818,0.02586660161614418],"min":[-0.026000000536441803,-0.02596662938594818,-0.026000000536441803]},{"componentType":5121,"normalized":true,"type":"VEC4","byteOffset":0,"bufferView":11,"count":558,"max":[42,44,48,255],"min":[0,0,0,0]},{"componentType":5125,"type":"SCALAR","bufferView":12,"count":768,"max":[127],"min":[0]},{"componentType":5126,"type":"VEC3","byteOffset":0,"bufferView":13,"count":128,"max":[0.008999999612569809,0.02800000086426735,0.02800000086426735],"min":[-0.008999999612569809,-0.02800000086426735,-0.02800000086426735]},{"componentType":5121,"normalized":true,"type":"VEC4","byteOffset":0,"bufferView":14,"count":128,"max":[84,92,100,255],"min":[84,92,100,255]},{"componentType":5126,"type":"VEC3","byteOffset":0,"bufferView":15,"count":558,"max":[0.15199999511241913,0.0319589264690876,0.03183581680059433],"min":[-0.03200000151991844,-0.0319589264690876,-0.03200000151991844]},{"componentType":5125,"type":"SCALAR","bufferView":16,"count":384,"max":[65],"min":[0]},{"componentType":5126,"type":"VEC3","byteOffset":0,"bufferView":17,"count":66,"max":[0.05000000074505806,0.024000000208616257,0.024000000208616257],"min":[-0.05000000074505806,-0.024000000208616257,-0.024000000208616257]},{"componentType":5125,"type":"SCALAR","bufferView":18,"count":384,"max":[65],"min":[0]},{"componentType":5126,"type":"VEC3","byteOffset":0,"bufferView":19,"count":66,"max":[0.01600000075995922,0.013000000268220901,0.013000000268220901],"min":[-0.01600000075995922,-0.013000000268220901,-0.013000000268220901]},{"componentType":5121,"normalized":true,"type":"VEC4","byteOffset":0,"bufferView":20,"count":66,"max":[134,142,150,255],"min":[134,142,150,255]},{"componentType":5125,"type":"SCALAR","bufferView":21,"count":384,"max":[65],"min":[0]},{"componentType":5126,"type":"VEC3","byteOffset":0,"bufferView":22,"count":66,"max":[0.013000000268220901,0.009999999776482582,0.009999999776482582],"min":[-0.013000000268220901,-0.009999999776482582,-0.009999999776482582]},{"componentType":5126,"type":"VEC3","byteOffset":0,"bufferView":23,"count":8,"max":[0.0020000000949949026,0.017000000923871994,0.017000000923871994],"min":[-0.0020000000949949026,-0.017000000923871994,-0.017000000923871994]},{"componentType":5121,"normalized":true,"type":"VEC4","byteOffset":0,"bufferView":24,"count":8,"max":[96,160,188,180],"min":[96,160,188,180]},{"componentType":5126,"type":"VEC3","byteOffset":0,"bufferView":25,"count":8,"max":[0.0020000000949949026,0.010999999940395355,0.010999999940395355],"min":[-0.0020000000949949026,-0.010999999940395355,-0.010999999940395355]}],"meshes":[{"name":"metaverse_10x_precision_scope_mount_block_geom","primitives":[{"attributes":{"POSITION":1,"COLOR_0":2},"indices":0,"mode":4}]},{"name":"metaverse_10x_precision_scope_cantilever_geom","primitives":[{"attributes":{"POSITION":3,"COLOR_0":4},"indices":0,"mode":4}]},{"name":"metaverse_10x_precision_scope_rear_ring_geom","primitives":[{"attributes":{"POSITION":5,"COLOR_0":4},"indices":0,"mode":4}]},{"name":"metaverse_10x_precision_scope_front_ring_geom","primitives":[{"attributes":{"POSITION":5,"COLOR_0":4},"indices":0,"mode":4}]},{"name":"metaverse_10x_precision_scope_tube_geom","primitives":[{"attributes":{"POSITION":7,"COLOR_0":8},"indices":6,"mode":4}]},{"name":"metaverse_10x_precision_scope_ocular_bell_geom","primitives":[{"attributes":{"POSITION":10,"COLOR_0":11},"indices":9,"mode":4}]},{"name":"metaverse_10x_precision_scope_eye_relief_ring_geom","primitives":[{"attributes":{"POSITION":13,"COLOR_0":14},"indices":12,"mode":4}]},{"name":"metaverse_10x_precision_scope_objective_bell_geom","primitives":[{"attributes":{"POSITION":15,"COLOR_0":11},"indices":9,"mode":4}]},{"name":"metaverse_10x_precision_scope_sunshade_geom","primitives":[{"attributes":{"POSITION":17,"COLOR_0":8},"indices":16,"mode":4}]},{"name":"metaverse_10x_precision_scope_turret_vertical_geom","primitives":[{"attributes":{"POSITION":19,"COLOR_0":20},"indices":18,"mode":4}]},{"name":"metaverse_10x_precision_scope_turret_side_geom","primitives":[{"attributes":{"POSITION":22,"COLOR_0":20},"indices":21,"mode":4}]},{"name":"metaverse_10x_precision_scope_objective_lens_geom","primitives":[{"attributes":{"POSITION":23,"COLOR_0":24},"indices":0,"mode":4}]},{"name":"metaverse_10x_precision_scope_ocular_lens_geom","primitives":[{"attributes":{"POSITION":25,"COLOR_0":24},"indices":0,"mode":4}]}],"nodes":[{"name":"metaverse_10x_precision_scope_root","children":[1,2,3,4,5,6,7,8,9,10,11,12,13,14,15,16,17,18,19]},{"name":"metaverse_10x_precision_scope_optic_forward_marker","matrix":[1.0,0.0,-0.0,0.0,0.0,1.0,0.0,0.0,0.0,0.0,1.0,0.0,1.0,0.0,0.0,1.0]},{"name":"metaverse_10x_precision_scope_optic_up_marker","matrix":[1.0,0.0,-0.0,0.0,0.0,1.0,0.0,0.0,0.0,0.0,1.0,0.0,0.0,1.0,0.0,1.0]},{"name":"metaverse_10x_precision_scope_eye_box_anchor","matrix":[1.0,0.0,-0.0,0.0,0.0,1.0,0.0,0.0,0.0,0.0,1.0,0.0,-0.304,0.054,0.0,1.0]},{"name":"metaverse_10x_precision_scope_reticle_plane","matrix":[1.0,0.0,-0.0,0.0,0.0,1.0,0.0,0.0,0.0,0.0,1.0,0.0,0.01,0.054,0.0,1.0]},{"name":"metaverse_10x_precision_scope_ocular_lens_marker","matrix":[1.0,0.0,-0.0,0.0,0.0,1.0,0.0,0.0,0.0,0.0,1.0,0.0,-0.274,0.054,0.0,1.0]},{"name":"metaverse_10x_precision_scope_objective_lens_marker","matrix":[1.0,0.0,-0.0,0.0,0.0,1.0,0.0,0.0,0.0,0.0,1.0,0.0,0.44,0.054,0.0,1.0]},{"name":"metaverse_10x_precision_scope_mount_block","mesh":0,"matrix":[1.0,0.0,-0.0,0.0,0.0,1.0,0.0,0.0,0.0,0.0,1.0,0.0,0.0,0.011,0.0,1.0]},{"name":"metaverse_10x_precision_scope_cantilever","mesh":1,"matrix":[1.0,0.0,-0.0,0.0,0.0,1.0,0.0,0.0,0.0,0.0,1.0,0.0,-0.07,0.02,0.0,1.0]},{"name":"metaverse_10x_precision_scope_rear_ring","mesh":2,"matrix":[1.0,0.0,-0.0,0.0,0.0,1.0,0.0,0.0,0.0,0.0,1.0,0.0,-0.065,0.028,0.0,1.0]},{"name":"metaverse_10x_precision_scope_front_ring","mesh":3,"matrix":[1.0,0.0,-0.0,0.0,0.0,1.0,0.0,0.0,0.0,0.0,1.0,0.0,0.075,0.028,0.0,1.0]},{"name":"metaverse_10x_precision_scope_tube","mesh":4,"matrix":[1.0,0.0,-0.0,0.0,0.0,1.0,0.0,0.0,0.0,0.0,1.0,0.0,0.0,0.054,0.0,1.0]},{"name":"metaverse_10x_precision_scope_ocular_bell","mesh":5,"matrix":[1.0,0.0,-0.0,0.0,0.0,1.0,0.0,0.0,0.0,0.0,1.0,0.0,-0.245,0.054,0.0,1.0]},{"name":"metaverse_10x_precision_scope_eye_relief_ring","mesh":6,"matrix":[1.0,0.0,-0.0,0.0,0.0,1.0,0.0,0.0,0.0,0.0,1.0,0.0,-0.18,0.054,0.0,1.0]},{"name":"metaverse_10x_precision_scope_objective_bell","mesh":7,"matrix":[1.0,0.0,-0.0,0.0,0.0,1.0,0.0,0.0,0.0,0.0,1.0,0.0,0.27,0.054,0.0,1.0]},{"name":"metaverse_10x_precision_scope_sunshade","mesh":8,"matrix":[1.0,0.0,-0.0,0.0,0.0,1.0,0.0,0.0,0.0,0.0,1.0,0.0,0.4,0.054,0.0,1.0]},{"name":"metaverse_10x_precision_scope_turret_vertical","mesh":9,"matrix":[6.123233995736766e-17,1.0,-0.0,0.0,-1.0,6.123233995736766e-17,0.0,0.0,0.0,0.0,1.0,0.0,0.03,0.086,0.0,1.0]},{"name":"metaverse_10x_precision_scope_turret_side","mesh":10,"matrix":[1.0,0.0,-0.0,0.0,0.0,1.0,0.0,0.0,0.0,0.0,1.0,0.0,0.03,0.054,-0.034,1.0]},{"name":"metaverse_10x_precision_scope_objective_lens","mesh":11,"matrix":[1.0,0.0,-0.0,0.0,0.0,1.0,0.0,0.0,0.0,0.0,1.0,0.0,0.44,0.054,0.0,1.0]},{"name":"metaverse_10x_precision_scope_ocular_lens","mesh":12,"matrix":[1.0,0.0,-0.0,0.0,0.0,1.0,0.0,0.0,0.0,0.0,1.0,0.0,-0.295,0.054,0.0,1.0]}],"buffers":[{"uri":"data:application/octet-stream;base64,","byteLength":144},{"uri":"data:application/octet-stream;base64,","byteLength":96},{"uri":"data:application/octet-stream;base64,","byteLength":32},{"uri":"data:application/octet-stream;base64,","byteLength":96},{"uri":"data:application/octet-stream;base64,","byteLength":32},{"uri":"data:application/octet-stream;base64,","byteLength":96},{"uri":"data:application/octet-stream;base64,","byteLength":1536},{"uri":"data:application/octet-stream;base64,","byteLength":792},{"uri":"data:application/octet-stream;base64,","byteLength":264},{"uri":"data:application/octet-stream;base64,","byteLength":11904},{"uri":"data:application/octet-stream;base64,","byteLength":6696},{"uri":"data:application/octet-stream;base64,","byteLength":2232},{"uri":"data:application/octet-stream;base64,","byteLength":3072},{"uri":"data:application/octet-stream;base64,","byteLength":1536},{"uri":"data:application/octet-stream;base64,","byteLength":512},{"uri":"data:application/octet-stream;base64,","byteLength":6696},{"uri":"data:application/octet-stream;base64,","byteLength":1536},{"uri":"data:application/octet-stream;base64,","byteLength":792},{"uri":"data:application/octet-stream;base64,","byteLength":1536},{"uri":"data:application/octet-stream;base64,","byteLength":792},{"uri":"data:application/octet-stream;base64,","byteLength":264},{"uri":"data:application/octet-stream;base64,","byteLength":1536},{"uri":"data:application/octet-stream;base64,","byteLength":792},{"uri":"data:application/octet-stream;base64,","byteLength":96},{"uri":"data:application/octet-stream;base64,","byteLength":32},{"uri":"data:application/octet-stream;base64,","byteLength":96}],"bufferViews":[{"buffer":0,"byteOffset":0,"byteLength":144},{"buffer":1,"byteOffset":0,"byteLength":96},{"buffer":2,"byteOffset":0,"byteLength":32},{"buffer":3,"byteOffset":0,"byteLength":96},{"buffer":4,"byteOffset":0,"byteLength":32},{"buffer":5,"byteOffset":0,"byteLength":96},{"buffer":6,"byteOffset":0,"byteLength":1536},{"buffer":7,"byteOffset":0,"byteLength":792},{"buffer":8,"byteOffset":0,"byteLength":264},{"buffer":9,"byteOffset":0,"byteLength":11904},{"buffer":10,"byteOffset":0,"byteLength":6696},{"buffer":11,"byteOffset":0,"byteLength":2232},{"buffer":12,"byteOffset":0,"byteLength":3072},{"buffer":13,"byteOffset":0,"byteLength":1536},{"buffer":14,"byteOffset":0,"byteLength":512},{"buffer":15,"byteOffset":0,"byteLength":6696},{"buffer":16,"byteOffset":0,"byteLength":1536},{"buffer":17,"byteOffset":0,"byteLength":792},{"buffer":18,"byteOffset":0,"byteLength":1536},{"buffer":19,"byteOffset":0,"byteLength":792},{"buffer":20,"byteOffset":0,"byteLength":264},{"buffer":21,"byteOffset":0,"byteLength":1536},{"buffer":22,"byteOffset":0,"byteLength":792},{"buffer":23,"byteOffset":0,"byteLength":96},{"buffer":24,"byteOffset":0,"byteLength":32},{"buffer":25,"byteOffset":0,"byteLength":96}]}