{"scene":0,"scenes":[{"nodes":[0]}],"asset":{"version":"2.0","generator":"https://github.com/mikedh/trimesh"},"accessors":[{"componentType":5125,"type":"SCALAR","bufferView":0,"count":36,"max":[7],"min":[0]},{"componentType":5126,"type":"VEC3","byteOffset":0,"bufferView":1,"count":8,"max":[0.05999999865889549,0.03999999910593033,0.03999999910593033],"min":[-0.05999999865889549,-0.03999999910593033,-0.03999999910593033]},{"componentType":5121,"normalized":true,"type":"VEC4","byteOffset":0,"bufferView":2,"count":8,"max":[146,131,101,255],"min":[146,131,101,255]},{"componentType":5126,"type":"VEC3","byteOffset":0,"bufferView":3,"count":8,"max":[0.02500000037252903,0.009999999776482582,0.004999999888241291],"min":[-0.02500000037252903,-0.009999999776482582,-0.004999999888241291]},{"componentType":5121,"normalized":true,"type":"VEC4","byteOffset":0,"bufferView":4,"count":8,"max":[84,92,100,255],"min":[84,92,100,255]},{"componentType":5126,"type":"VEC3","byteOffset":0,"bufferView":5,"count":8,"max":[0.019999999552965164,0.004999999888241291,0.009999999776482582],"min":[-0.019999999552965164,-0.004999999888241291,-0.009999999776482582]}],"meshes":[{"name":"metaverse_guidance_shroud_body_geom","extras":{"shape":"box","extents":[0.12,0.08,0.08]},"primitives":[{"attributes":{"POSITION":1,"COLOR_0":2},"indices":0,"mode":4}]},{"name":"metaverse_guidance_shroud_fin_top_geom","extras":{"shape":"box","extents":[0.05,0.02,0.01]},"primitives":[{"attributes":{"POSITION":3,"COLOR_0":4},"indices":0,"mode":4}]},{"name":"metaverse_guidance_shroud_fin_left_geom","extras":{"shape":"box","extents":[0.04,0.01,0.02]},"primitives":[{"attributes":{"POSITION":5,"COLOR_0":4},"indices":0,"mode":4}]},{"name":"metaverse_guidance_shroud_fin_right_geom","extras":{"shape":"box","extents":[0.04,0.01,0.02]},"primitives":[{"attributes":{"POSITION":5,"COLOR_0":4},"indices":0,"mode":4}]}],"nodes":[{"name":"metaverse_guidance_shroud_root","children":[1,2,3,4]},{"name":"metaverse_guidance_shroud_body","mesh":0,"matrix":[1.0,0.0,-0.0,0.0,0.0,1.0,0.0,0.0,0.0,0.0,1.0,0.0,0.06,0.0,0.0,1.0]},{"name":"metaverse_guidance_shroud_fin_top","mesh":1,"matrix":[1.0,0.0,-0.0,0.0,0.0,1.0,0.0,0.0,0.0,0.0,1.0,0.0,0.08,0.05,0.0,1.0]},{"name":"metaverse_guidance_shroud_fin_left","mesh":2,"matrix":[1.0,0.0,-0.0,0.0,0.0,1.0,0.0,0.0,0.0,0.0,1.0,0.0,0.08,0.0,-0.045,1.0]},{"name":"metaverse_guidance_shroud_fin_right","mesh":3,"matrix":[1.0,0.0,-0.0,0.0,0.0,1.0,0.0,0.0,0.0,0.0,1.0,0.0,0.08,0.0,0.045,1.0]}],"buffers":[{"uri":"data:application/octet-stream;base64,","byteLength":144},{"uri":"data:application/octet-stream;base64,","byteLength":96},{"uri":"data:application/octet-stream;base64,","byteLength":32},{"uri":"data:application/octet-stream;base64,","byteLength":96},{"uri":"data:application/octet-stream;base64,","byteLength":32},{"uri":"data:application/octet-stream;base64,","byteLength":96}],"bufferViews":[{"buffer":0,"byteOffset":0,"byteLength":144},{"buffer":1,"byteOffset":0,"byteLength":96},{"buffer":2,"byteOffset":0,"byteLength":32},{"buffer":3,"byteOffset":0,"byteLength":96},{"buffer":4,"byteOffset":0,"byteLength":32},{"buffer":5,"byteOffset":0,"byteLength":96}]}