{"scene":0,"scenes":[{"nodes":[0]}],"asset":{"version":"2.0","generator":"https://github.com/mikedh/trimesh"},"accessors":[{"componentType":5125,"type":"SCALAR","bufferView":0,"count":36,"max":[7],"min":[0]},{"componentType":5126,"type":"VEC3","byteOffset":0,"bufferView":1,"count":8,"max":[0.05000000074505806,0.00800000037997961,0.014999999664723873],"min":[-0.05000000074505806,-0.00800000037997961,-0.014999999664723873]},{"componentType":5121,"normalized":true,"type":"VEC4","byteOffset":0,"bufferView":2,"count":8,"max":[84,92,100,255],"min":[84,92,100,255]},{"componentType":5125,"type":"SCALAR","bufferView":3,"count":288,"max":[49],"min":[0]},{"componentType":5126,"type":"VEC3","byteOffset":0,"bufferView":4,"count":50,"max":[0.054999999701976776,0.017999999225139618,0.017999999225139618],"min":[-0.054999999701976776,-0.017999999225139618,-0.017999999225139618]},{"componentType":5121,"normalized":true,"type":"VEC4","byteOffset":0,"bufferView":5,"count":50,"max":[42,44,48,255],"min":[42,44,48,255]},{"componentType":5126,"type":"VEC3","byteOffset":0,"bufferView":6,"count":8,"max":[0.009999999776482582,0.014999999664723873,0.014999999664723873],"min":[-0.009999999776482582,-0.014999999664723873,-0.014999999664723873]},{"componentType":5121,"normalized":true,"type":"VEC4","byteOffset":0,"bufferView":7,"count":8,"max":[58,60,63,255],"min":[58,60,63,255]}],"meshes":[{"name":"metaverse_2x_combat_optic_base_geom","extras":{"shape":"box","extents":[0.1,0.016,0.03]},"primitives":[{"attributes":{"POSITION":1,"COLOR_0":2},"indices":0,"mode":4}]},{"name":"metaverse_2x_combat_optic_body_geom","extras":{"shape":"cylinder","height":0.11,"radius":0.018,"processed":true},"primitives":[{"attributes":{"POSITION":4,"COLOR_0":5},"indices":3,"mode":4}]},{"name":"metaverse_2x_combat_optic_cap_geom","extras":{"shape":"box","extents":[0.02,0.03,0.03]},"primitives":[{"attributes":{"POSITION":6,"COLOR_0":7},"indices":0,"mode":4}]}],"nodes":[{"name":"metaverse_2x_combat_optic_root","children":[1,2,3]},{"name":"metaverse_2x_combat_optic_base","mesh":0,"matrix":[1.0,0.0,-0.0,0.0,0.0,1.0,0.0,0.0,0.0,0.0,1.0,0.0,0.0,0.008,0.0,1.0]},{"name":"metaverse_2x_combat_optic_body","mesh":1,"matrix":[1.0,0.0,-0.0,0.0,0.0,1.0,0.0,0.0,0.0,0.0,1.0,0.0,0.015,0.04,0.0,1.0]},{"name":"metaverse_2x_combat_optic_cap","mesh":2,"matrix":[1.0,0.0,-0.0,0.0,0.0,1.0,0.0,0.0,0.0,0.0,1.0,0.0,-0.03,0.04,0.0,1.0]}],"buffers":[{"uri":"data:application/octet-stream;base64,","byteLength":144},{"uri":"data:application/octet-stream;base64,","byteLength":96},{"uri":"data:application/octet-stream;base64,","byteLength":32},{"uri":"data:application/octet-stream;base64,","byteLength":1152},{"uri":"data:application/octet-stream;base64,","byteLength":600},{"uri":"data:application/octet-stream;base64,","byteLength":200},{"uri":"data:application/octet-stream;base64,","byteLength":96},{"uri":"data:application/octet-stream;base64,","byteLength":32}],"bufferViews":[{"buffer":0,"byteOffset":0,"byteLength":144},{"buffer":1,"byteOffset":0,"byteLength":96},{"buffer":2,"byteOffset":0,"byteLength":32},{"buffer":3,"byteOffset":0,"byteLength":1152},{"buffer":4,"byteOffset":0,"byteLength":600},{"buffer":5,"byteOffset":0,"byteLength":200},{"buffer":6,"byteOffset":0,"byteLength":96},{"buffer":7,"byteOffset":0,"byteLength":32}]}