{"scene":0,"scenes":[{"nodes":[0]}],"asset":{"version":"2.0","generator":"https://github.com/mikedh/trimesh"},"accessors":[{"componentType":5125,"type":"SCALAR","bufferView":0,"count":36,"max":[7],"min":[0]},{"componentType":5126,"type":"VEC3","byteOffset":0,"bufferView":1,"count":8,"max":[0.38999998569488525,0.017000000923871994,0.020999999716877937],"min":[-0.38999998569488525,-0.017000000923871994,-0.020999999716877937]},{"componentType":5121,"normalized":true,"type":"VEC4","byteOffset":0,"bufferView":2,"count":8,"max":[84,92,100,255],"min":[84,92,100,255]},{"componentType":5126,"type":"VEC3","byteOffset":0,"bufferView":3,"count":8,"max":[0.28999999165534973,0.006000000052154064,0.014999999664723873],"min":[-0.28999999165534973,-0.006000000052154064,-0.014999999664723873]},{"componentType":5121,"normalized":true,"type":"VEC4","byteOffset":0,"bufferView":4,"count":8,"max":[134,142,150,255],"min":[134,142,150,255]},{"componentType":5126,"type":"VEC3","byteOffset":0,"bufferView":5,"count":8,"max":[0.125,0.027499999850988388,0.028999999165534973],"min":[-0.125,-0.027499999850988388,-0.028999999165534973]},{"componentType":5121,"normalized":true,"type":"VEC4","byteOffset":0,"bufferView":6,"count":8,"max":[94,108,87,255],"min":[94,108,87,255]},{"componentType":5126,"type":"VEC3","byteOffset":0,"bufferView":7,"count":8,"max":[0.08500000089406967,0.029999999329447746,0.02500000037252903],"min":[-0.08500000089406967,-0.029999999329447746,-0.02500000037252903]},{"componentType":5126,"type":"VEC3","byteOffset":0,"bufferView":8,"count":8,"max":[0.03999999910593033,0.027499999850988388,0.019999999552965164],"min":[-0.03999999910593033,-0.027499999850988388,-0.019999999552965164]},{"componentType":5126,"type":"VEC3","byteOffset":0,"bufferView":9,"count":8,"max":[0.029999999329447746,0.05999999865889549,0.01899999938905239],"min":[-0.029999999329447746,-0.05999999865889549,-0.01899999938905239]},{"componentType":5121,"normalized":true,"type":"VEC4","byteOffset":0,"bufferView":10,"count":8,"max":[42,44,48,255],"min":[42,44,48,255]},{"componentType":5126,"type":"VEC3","byteOffset":0,"bufferView":11,"count":8,"max":[0.02500000037252903,0.07000000029802322,0.017999999225139618],"min":[-0.02500000037252903,-0.07000000029802322,-0.017999999225139618]},{"componentType":5121,"normalized":true,"type":"VEC4","byteOffset":0,"bufferView":12,"count":8,"max":[58,60,63,255],"min":[58,60,63,255]},{"componentType":5126,"type":"VEC3","byteOffset":0,"bufferView":13,"count":8,"max":[0.035999998450279236,0.014999999664723873,0.007000000216066837],"min":[-0.035999998450279236,-0.014999999664723873,-0.007000000216066837]},{"componentType":5126,"type":"VEC3","byteOffset":0,"bufferView":14,"count":8,"max":[0.15000000596046448,0.02500000037252903,0.017000000923871994],"min":[-0.15000000596046448,-0.02500000037252903,-0.017000000923871994]},{"componentType":5126,"type":"VEC3","byteOffset":0,"bufferView":15,"count":8,"max":[0.014999999664723873,0.07500000298023224,0.024000000208616257],"min":[-0.014999999664723873,-0.07500000298023224,-0.024000000208616257]},{"componentType":5121,"normalized":true,"type":"VEC4","byteOffset":0,"bufferView":16,"count":8,"max":[36,38,40,255],"min":[36,38,40,255]},{"componentType":5126,"type":"VEC3","byteOffset":0,"bufferView":17,"count":8,"max":[0.07999999821186066,0.010999999940395355,0.02500000037252903],"min":[-0.07999999821186066,-0.010999999940395355,-0.02500000037252903]},{"componentType":5121,"normalized":true,"type":"VEC4","byteOffset":0,"bufferView":18,"count":8,"max":[146,131,101,255],"min":[146,131,101,255]},{"componentType":5126,"type":"VEC3","byteOffset":0,"bufferView":19,"count":8,"max":[0.10000000149011612,0.010999999940395355,0.012500000186264515],"min":[-0.10000000149011612,-0.010999999940395355,-0.012500000186264515]},{"componentType":5126,"type":"VEC3","byteOffset":0,"bufferView":20,"count":8,"max":[0.20999999344348907,0.02250000089406967,0.02500000037252903],"min":[-0.20999999344348907,-0.02250000089406967,-0.02500000037252903]},{"componentType":5126,"type":"VEC3","byteOffset":0,"bufferView":21,"count":8,"max":[0.17000000178813934,0.008999999612569809,0.014000000432133675],"min":[-0.17000000178813934,-0.008999999612569809,-0.014000000432133675]},{"componentType":5126,"type":"VEC3","byteOffset":0,"bufferView":22,"count":8,"max":[0.15000000596046448,0.00800000037997961,0.013000000268220901],"min":[-0.15000000596046448,-0.00800000037997961,-0.013000000268220901]},{"componentType":5126,"type":"VEC3","byteOffset":0,"bufferView":23,"count":8,"max":[0.02250000089406967,0.006000000052154064,0.003000000026077032],"min":[-0.02250000089406967,-0.006000000052154064,-0.003000000026077032]},{"componentType":5125,"type":"SCALAR","bufferView":24,"count":384,"max":[65],"min":[0]},{"componentType":5126,"type":"VEC3","byteOffset":0,"bufferView":25,"count":66,"max":[0.1599999964237213,0.017999999225139618,0.017999999225139618],"min":[-0.1599999964237213,-0.017999999225139618,-0.017999999225139618]},{"componentType":5121,"normalized":true,"type":"VEC4","byteOffset":0,"bufferView":26,"count":66,"max":[42,44,48,255],"min":[42,44,48,255]},{"componentType":5125,"type":"SCALAR","bufferView":27,"count":384,"max":[65],"min":[0]},{"componentType":5126,"type":"VEC3","byteOffset":0,"bufferView":28,"count":66,"max":[0.28999999165534973,0.010499999858438969,0.010499999858438969],"min":[-0.28999999165534973,-0.010499999858438969,-0.010499999858438969]},{"componentType":5121,"normalized":true,"type":"VEC4","byteOffset":0,"bufferView":29,"count":66,"max":[84,92,100,255],"min":[84,92,100,255]},{"componentType":5125,"type":"SCALAR","bufferView":30,"count":384,"max":[65],"min":[0]},{"componentType":5126,"type":"VEC3","byteOffset":0,"bufferView":31,"count":66,"max":[0.017500000074505806,0.013000000268220901,0.013000000268220901],"min":[-0.017500000074505806,-0.013000000268220901,-0.013000000268220901]},{"componentType":5121,"normalized":true,"type":"VEC4","byteOffset":0,"bufferView":32,"count":66,"max":[134,142,150,255],"min":[134,142,150,255]},{"componentType":5126,"type":"VEC3","byteOffset":0,"bufferView":33,"count":8,"max":[0.05999999865889549,0.008999999612569809,0.012000000104308128],"min":[-0.05999999865889549,-0.008999999612569809,-0.012000000104308128]},{"componentType":5125,"type":"SCALAR","bufferView":34,"count":384,"max":[65],"min":[0]},{"componentType":5126,"type":"VEC3","byteOffset":0,"bufferView":35,"count":66,"max":[0.014999999664723873,0.006000000052154064,0.006000000052154064],"min":[-0.014999999664723873,-0.006000000052154064,-0.006000000052154064]},{"componentType":5125,"type":"SCALAR","bufferView":36,"count":960,"max":[161],"min":[0]},{"componentType":5126,"type":"VEC3","byteOffset":0,"bufferView":37,"count":162,"max":[0.012000000104308128,0.012000000104308128,0.012000000104308128],"min":[-0.012000000104308128,-0.012000000104308128,-0.012000000104308128]},{"componentType":5121,"normalized":true,"type":"VEC4","byteOffset":0,"bufferView":38,"count":162,"max":[134,142,150,255],"min":[134,142,150,255]},{"componentType":5126,"type":"VEC3","byteOffset":0,"bufferView":39,"count":8,"max":[0.029999999329447746,0.010999999940395355,0.014999999664723873],"min":[-0.029999999329447746,-0.010999999940395355,-0.014999999664723873]},{"componentType":5126,"type":"VEC3","byteOffset":0,"bufferView":40,"count":8,"max":[0.04500000178813934,0.010999999940395355,0.014999999664723873],"min":[-0.04500000178813934,-0.010999999940395355,-0.014999999664723873]}],"meshes":[{"name":"metaverse_longshot_sniper_chassis_spine_geom","primitives":[{"attributes":{"POSITION":1,"COLOR_0":2},"indices":0,"mode":4}]},{"name":"metaverse_longshot_sniper_top_rail_geom","primitives":[{"attributes":{"POSITION":3,"COLOR_0":4},"indices":0,"mode":4}]},{"name":"metaverse_longshot_sniper_receiver_upper_geom","primitives":[{"attributes":{"POSITION":5,"COLOR_0":6},"indices":0,"mode":4}]},{"name":"metaverse_longshot_sniper_receiver_lower_geom","primitives":[{"attributes":{"POSITION":7,"COLOR_0":6},"indices":0,"mode":4}]},{"name":"metaverse_longshot_sniper_magwell_geom","primitives":[{"attributes":{"POSITION":8,"COLOR_0":2},"indices":0,"mode":4}]},{"name":"metaverse_longshot_sniper_magazine_geom","primitives":[{"attributes":{"POSITION":9,"COLOR_0":10},"indices":0,"mode":4}]},{"name":"metaverse_longshot_sniper_pistol_grip_geom","primitives":[{"attributes":{"POSITION":11,"COLOR_0":12},"indices":0,"mode":4}]},{"name":"metaverse_longshot_sniper_trigger_guard_geom","primitives":[{"attributes":{"POSITION":13,"COLOR_0":2},"indices":0,"mode":4}]},{"name":"metaverse_longshot_sniper_rear_stock_spine_geom","primitives":[{"attributes":{"POSITION":14,"COLOR_0":2},"indices":0,"mode":4}]},{"name":"metaverse_longshot_sniper_buttpad_geom","primitives":[{"attributes":{"POSITION":15,"COLOR_0":16},"indices":0,"mode":4}]},{"name":"metaverse_longshot_sniper_cheek_rest_geom","primitives":[{"attributes":{"POSITION":17,"COLOR_0":18},"indices":0,"mode":4}]},{"name":"metaverse_longshot_sniper_stock_lower_rail_geom","primitives":[{"attributes":{"POSITION":19,"COLOR_0":12},"indices":0,"mode":4}]},{"name":"metaverse_longshot_sniper_handguard_core_geom","primitives":[{"attributes":{"POSITION":20,"COLOR_0":18},"indices":0,"mode":4}]},{"name":"metaverse_longshot_sniper_handguard_top_strip_geom","primitives":[{"attributes":{"POSITION":21,"COLOR_0":6},"indices":0,"mode":4}]},{"name":"metaverse_longshot_sniper_handguard_bottom_rail_geom","primitives":[{"attributes":{"POSITION":22,"COLOR_0":2},"indices":0,"mode":4}]},{"name":"metaverse_longshot_sniper_vent_left_1_geom","primitives":[{"attributes":{"POSITION":23,"COLOR_0":10},"indices":0,"mode":4}]},{"name":"metaverse_longshot_sniper_vent_left_2_geom","primitives":[{"attributes":{"POSITION":23,"COLOR_0":10},"indices":0,"mode":4}]},{"name":"metaverse_longshot_sniper_vent_left_3_geom","primitives":[{"attributes":{"POSITION":23,"COLOR_0":10},"indices":0,"mode":4}]},{"name":"metaverse_longshot_sniper_vent_right_1_geom","primitives":[{"attributes":{"POSITION":23,"COLOR_0":10},"indices":0,"mode":4}]},{"name":"metaverse_longshot_sniper_vent_right_2_geom","primitives":[{"attributes":{"POSITION":23,"COLOR_0":10},"indices":0,"mode":4}]},{"name":"metaverse_longshot_sniper_vent_right_3_geom","primitives":[{"attributes":{"POSITION":23,"COLOR_0":10},"indices":0,"mode":4}]},{"name":"metaverse_longshot_sniper_barrel_shroud_geom","primitives":[{"attributes":{"POSITION":25,"COLOR_0":26},"indices":24,"mode":4}]},{"name":"metaverse_longshot_sniper_barrel_geom","primitives":[{"attributes":{"POSITION":28,"COLOR_0":29},"indices":27,"mode":4}]},{"name":"metaverse_longshot_sniper_thread_collar_geom","primitives":[{"attributes":{"POSITION":31,"COLOR_0":32},"indices":30,"mode":4}]},{"name":"metaverse_longshot_sniper_bolt_channel_geom","primitives":[{"attributes":{"POSITION":33,"COLOR_0":10},"indices":0,"mode":4}]},{"name":"metaverse_longshot_sniper_bolt_handle_root_geom","primitives":[{"attributes":{"POSITION":35,"COLOR_0":32},"indices":34,"mode":4}]},{"name":"metaverse_longshot_sniper_bolt_handle_knob_geom","primitives":[{"attributes":{"POSITION":37,"COLOR_0":38},"indices":36,"mode":4}]},{"name":"metaverse_longshot_sniper_rail_rear_riser_geom","primitives":[{"attributes":{"POSITION":39,"COLOR_0":4},"indices":0,"mode":4}]},{"name":"metaverse_longshot_sniper_rail_front_riser_geom","primitives":[{"attributes":{"POSITION":40,"COLOR_0":4},"indices":0,"mode":4}]}],"nodes":[{"name":"metaverse_longshot_sniper_root","children":[1,2,3,4,5,6,7,8,9,10,11,12,13,14,15,16,17,18,19,20,21,22,23,24,25,26,27,28,29,30,31,32,33,34,35,36,37,38,39,40,41]},{"name":"metaverse_longshot_sniper_forward_marker","matrix":[1.0,0.0,-0.0,0.0,0.0,1.0,0.0,0.0,0.0,0.0,1.0,0.0,1.0,0.0,0.0,1.0]},{"name":"metaverse_longshot_sniper_up_marker","matrix":[1.0,0.0,-0.0,0.0,0.0,1.0,0.0,0.0,0.0,0.0,1.0,0.0,0.0,1.0,0.0,1.0]},{"name":"metaverse_longshot_sniper_grip_hand_r_socket","matrix":[1.0,0.0,-0.0,0.0,0.0,1.0,0.0,0.0,0.0,0.0,1.0,0.0,0.085,-0.028,0.0,1.0]},{"name":"metaverse_longshot_sniper_trigger_marker","matrix":[1.0,0.0,-0.0,0.0,0.0,1.0,0.0,0.0,0.0,0.0,1.0,0.0,0.16,-0.006,0.0,1.0]},{"name":"metaverse_longshot_sniper_support_grip_marker","matrix":[1.0,0.0,-0.0,0.0,0.0,1.0,0.0,0.0,0.0,0.0,1.0,0.0,0.57,-0.018,0.03,1.0]},{"name":"metaverse_longshot_sniper_grip_module_socket","matrix":[1.0,0.0,-0.0,0.0,0.0,1.0,0.0,0.0,0.0,0.0,1.0,0.0,0.61,-0.013,0.0,1.0]},{"name":"metaverse_longshot_sniper_front_sight_socket","matrix":[1.0,0.0,-0.0,0.0,0.0,1.0,0.0,0.0,0.0,0.0,1.0,0.0,1.1,0.103,0.0,1.0]},{"name":"metaverse_longshot_sniper_rear_sight_socket","matrix":[1.0,0.0,-0.0,0.0,0.0,1.0,0.0,0.0,0.0,0.0,1.0,0.0,0.27,0.103,0.0,1.0]},{"name":"metaverse_longshot_sniper_optic_mount_socket","matrix":[1.0,0.0,-0.0,0.0,0.0,1.0,0.0,0.0,0.0,0.0,1.0,0.0,0.49,0.118,0.0,1.0]},{"name":"metaverse_longshot_sniper_muzzle_socket","matrix":[1.0,0.0,-0.0,0.0,0.0,1.0,0.0,0.0,0.0,0.0,1.0,0.0,1.225,0.058,0.0,1.0]},{"name":"metaverse_longshot_sniper_ads_camera_anchor","matrix":[1.0,0.0,-0.0,0.0,0.0,1.0,0.0,0.0,0.0,0.0,1.0,0.0,0.18,0.168,0.0,1.0]},{"name":"metaverse_longshot_sniper_back_socket","matrix":[1.0,0.0,-0.0,0.0,0.0,1.0,0.0,0.0,0.0,0.0,1.0,0.0,-0.05,0.06,0.0,1.0]},{"name":"metaverse_longshot_sniper_chassis_spine","mesh":0,"matrix":[1.0,0.0,-0.0,0.0,0.0,1.0,0.0,0.0,0.0,0.0,1.0,0.0,0.32,0.052,0.0,1.0]},{"name":"metaverse_longshot_sniper_top_rail","mesh":1,"matrix":[1.0,0.0,-0.0,0.0,0.0,1.0,0.0,0.0,0.0,0.0,1.0,0.0,0.43,0.108,0.0,1.0]},{"name":"metaverse_longshot_sniper_receiver_upper","mesh":2,"matrix":[1.0,0.0,-0.0,0.0,0.0,1.0,0.0,0.0,0.0,0.0,1.0,0.0,0.17,0.066,0.0,1.0]},{"name":"metaverse_longshot_sniper_receiver_lower","mesh":3,"matrix":[1.0,0.0,-0.0,0.0,0.0,1.0,0.0,0.0,0.0,0.0,1.0,0.0,0.12,0.03,0.0,1.0]},{"name":"metaverse_longshot_sniper_magwell","mesh":4,"matrix":[1.0,0.0,-0.0,0.0,0.0,1.0,0.0,0.0,0.0,0.0,1.0,0.0,0.18,-0.005,0.0,1.0]},{"name":"metaverse_longshot_sniper_magazine","mesh":5,"matrix":[0.9939560979566968,0.10977830083717481,-0.0,0.0,-0.10977830083717481,0.9939560979566968,0.0,0.0,0.0,0.0,1.0,0.0,0.2,-0.085,0.0,1.0]},{"name":"metaverse_longshot_sniper_pistol_grip","mesh":6,"matrix":[0.9610554383107709,0.27635564856411376,-0.0,0.0,-0.27635564856411376,0.9610554383107709,0.0,0.0,0.0,0.0,1.0,0.0,0.07,-0.05,0.0,1.0]},{"name":"metaverse_longshot_sniper_trigger_guard","mesh":7,"matrix":[0.9887710779360422,0.14943813247359922,-0.0,0.0,-0.14943813247359922,0.9887710779360422,0.0,0.0,0.0,0.0,1.0,0.0,0.115,-0.03,0.0,1.0]},{"name":"metaverse_longshot_sniper_rear_stock_spine","mesh":8,"matrix":[1.0,0.0,-0.0,0.0,0.0,1.0,0.0,0.0,0.0,0.0,1.0,0.0,-0.18,0.06,0.0,1.0]},{"name":"metaverse_longshot_sniper_buttpad","mesh":9,"matrix":[1.0,0.0,-0.0,0.0,0.0,1.0,0.0,0.0,0.0,0.0,1.0,0.0,-0.35,0.05,0.0,1.0]},{"name":"metaverse_longshot_sniper_cheek_rest","mesh":10,"matrix":[1.0,0.0,-0.0,0.0,0.0,1.0,0.0,0.0,0.0,0.0,1.0,0.0,-0.15,0.11,0.0,1.0]},{"name":"metaverse_longshot_sniper_stock_lower_rail","mesh":11,"matrix":[1.0,0.0,-0.0,0.0,0.0,1.0,0.0,0.0,0.0,0.0,1.0,0.0,-0.14,0.015,0.0,1.0]},{"name":"metaverse_longshot_sniper_handguard_core","mesh":12,"matrix":[1.0,0.0,-0.0,0.0,0.0,1.0,0.0,0.0,0.0,0.0,1.0,0.0,0.58,0.037,0.0,1.0]},{"name":"metaverse_longshot_sniper_handguard_top_strip","mesh":13,"matrix":[1.0,0.0,-0.0,0.0,0.0,1.0,0.0,0.0,0.0,0.0,1.0,0.0,0.61,0.077,0.0,1.0]},{"name":"metaverse_longshot_sniper_handguard_bottom_rail","mesh":14,"matrix":[1.0,0.0,-0.0,0.0,0.0,1.0,0.0,0.0,0.0,0.0,1.0,0.0,0.6,-0.002,0.0,1.0]},{"name":"metaverse_longshot_sniper_vent_left_1","mesh":15,"matrix":[1.0,0.0,-0.0,0.0,0.0,1.0,0.0,0.0,0.0,0.0,1.0,0.0,0.48,0.05,-0.024,1.0]},{"name":"metaverse_longshot_sniper_vent_left_2","mesh":16,"matrix":[1.0,0.0,-0.0,0.0,0.0,1.0,0.0,0.0,0.0,0.0,1.0,0.0,0.6,0.05,-0.024,1.0]},{"name":"metaverse_longshot_sniper_vent_left_3","mesh":17,"matrix":[1.0,0.0,-0.0,0.0,0.0,1.0,0.0,0.0,0.0,0.0,1.0,0.0,0.72,0.05,-0.024,1.0]},{"name":"metaverse_longshot_sniper_vent_right_1","mesh":18,"matrix":[1.0,0.0,-0.0,0.0,0.0,1.0,0.0,0.0,0.0,0.0,1.0,0.0,0.48,0.05,0.024,1.0]},{"name":"metaverse_longshot_sniper_vent_right_2","mesh":19,"matrix":[1.0,0.0,-0.0,0.0,0.0,1.0,0.0,0.0,0.0,0.0,1.0,0.0,0.6,0.05,0.024,1.0]},{"name":"metaverse_longshot_sniper_vent_right_3","mesh":20,"matrix":[1.0,0.0,-0.0,0.0,0.0,1.0,0.0,0.0,0.0,0.0,1.0,0.0,0.72,0.05,0.024,1.0]},{"name":"metaverse_longshot_sniper_barrel_shroud","mesh":21,"matrix":[1.0,0.0,-0.0,0.0,0.0,1.0,0.0,0.0,0.0,0.0,1.0,0.0,0.83,0.058,0.0,1.0]},{"name":"metaverse_longshot_sniper_barrel","mesh":22,"matrix":[1.0,0.0,-0.0,0.0,0.0,1.0,0.0,0.0,0.0,0.0,1.0,0.0,0.96,0.058,0.0,1.0]},{"name":"metaverse_longshot_sniper_thread_collar","mesh":23,"matrix":[1.0,0.0,-0.0,0.0,0.0,1.0,0.0,0.0,0.0,0.0,1.0,0.0,1.2,0.058,0.0,1.0]},{"name":"metaverse_longshot_sniper_bolt_channel","mesh":24,"matrix":[1.0,0.0,-0.0,0.0,0.0,1.0,0.0,0.0,0.0,0.0,1.0,0.0,0.18,0.078,0.0,1.0]},{"name":"metaverse_longshot_sniper_bolt_handle_root","mesh":25,"matrix":[6.123233995736766e-17,1.0,-0.0,0.0,-1.0,6.123233995736766e-17,0.0,0.0,0.0,0.0,1.0,0.0,0.1,0.062,-0.037,1.0]},{"name":"metaverse_longshot_sniper_bolt_handle_knob","mesh":26,"matrix":[1.0,0.0,-0.0,0.0,0.0,1.0,0.0,0.0,0.0,0.0,1.0,0.0,0.1,0.025,-0.037,1.0]},{"name":"metaverse_longshot_sniper_rail_rear_riser","mesh":27,"matrix":[1.0,0.0,-0.0,0.0,0.0,1.0,0.0,0.0,0.0,0.0,1.0,0.0,0.18,0.094,0.0,1.0]},{"name":"metaverse_longshot_sniper_rail_front_riser","mesh":28,"matrix":[1.0,0.0,-0.0,0.0,0.0,1.0,0.0,0.0,0.0,0.0,1.0,0.0,0.52,0.094,0.0,1.0]}],"buffers":[{"uri":"data:application/octet-stream;base64,","byteLength":144},{"uri":"data:application/octet-stream;base64,","byteLength":96},{"uri":"data:application/octet-stream;base64,","byteLength":32},{"uri":"data:application/octet-stream;base64,","byteLength":96},{"uri":"data:application/octet-stream;base64,","byteLength":32},{"uri":"data:application/octet-stream;base64,","byteLength":96},{"uri":"data:application/octet-stream;base64,","byteLength":32},{"uri":"data:application/octet-stream;base64,","byteLength":96},{"uri":"data:application/octet-stream;base64,","byteLength":96},{"uri":"data:application/octet-stream;base64,","byteLength":96},{"uri":"data:application/octet-stream;base64,","byteLength":32},{"uri":"data:application/octet-stream;base64,","byteLength":96},{"uri":"data:application/octet-stream;base64,","byteLength":32},{"uri":"data:application/octet-stream;base64,","byteLength":96},{"uri":"data:application/octet-stream;base64,","byteLength":96},{"uri":"data:application/octet-stream;base64,","byteLength":96},{"uri":"data:application/octet-stream;base64,","byteLength":32},{"uri":"data:application/octet-stream;base64,","byteLength":96},{"uri":"data:application/octet-stream;base64,","byteLength":32},{"uri":"data:application/octet-stream;base64,","byteLength":96},{"uri":"data:application/octet-stream;base64,","byteLength":96},{"uri":"data:application/octet-stream;base64,","byteLength":96},{"uri":"data:application/octet-stream;base64,","byteLength":96},{"uri":"data:application/octet-stream;base64,","byteLength":96},{"uri":"data:application/octet-stream;base64,","byteLength":1536},{"uri":"data:application/octet-stream;base64,","byteLength":792},{"uri":"data:application/octet-stream;base64,","byteLength":264},{"uri":"data:application/octet-stream;base64,","byteLength":1536},{"uri":"data:application/octet-stream;base64,","byteLength":792},{"uri":"data:application/octet-stream;base64,","byteLength":264},{"uri":"data:application/octet-stream;base64,","byteLength":1536},{"uri":"data:application/octet-stream;base64,","byteLength":792},{"uri":"data:application/octet-stream;base64,","byteLength":264},{"uri":"data:application/octet-stream;base64,","byteLength":96},{"uri":"data:application/octet-stream;base64,","byteLength":1536},{"uri":"data:application/octet-stream;base64,","byteLength":792},{"uri":"data:application/octet-stream;base64,","byteLength":3840},{"uri":"data:application/octet-stream;base64,","byteLength":1944},{"uri":"data:application/octet-stream;base64,","byteLength":648},{"uri":"data:application/octet-stream;base64,","byteLength":96},{"uri":"data:application/octet-stream;base64,","byteLength":96}],"bufferViews":[{"buffer":0,"byteOffset":0,"byteLength":144},{"buffer":1,"byteOffset":0,"byteLength":96},{"buffer":2,"byteOffset":0,"byteLength":32},{"buffer":3,"byteOffset":0,"byteLength":96},{"buffer":4,"byteOffset":0,"byteLength":32},{"buffer":5,"byteOffset":0,"byteLength":96},{"buffer":6,"byteOffset":0,"byteLength":32},{"buffer":7,"byteOffset":0,"byteLength":96},{"buffer":8,"byteOffset":0,"byteLength":96},{"buffer":9,"byteOffset":0,"byteLength":96},{"buffer":10,"byteOffset":0,"byteLength":32},{"buffer":11,"byteOffset":0,"byteLength":96},{"buffer":12,"byteOffset":0,"byteLength":32},{"buffer":13,"byteOffset":0,"byteLength":96},{"buffer":14,"byteOffset":0,"byteLength":96},{"buffer":15,"byteOffset":0,"byteLength":96},{"buffer":16,"byteOffset":0,"byteLength":32},{"buffer":17,"byteOffset":0,"byteLength":96},{"buffer":18,"byteOffset":0,"byteLength":32},{"buffer":19,"byteOffset":0,"byteLength":96},{"buffer":20,"byteOffset":0,"byteLength":96},{"buffer":21,"byteOffset":0,"byteLength":96},{"buffer":22,"byteOffset":0,"byteLength":96},{"buffer":23,"byteOffset":0,"byteLength":96},{"buffer":24,"byteOffset":0,"byteLength":1536},{"buffer":25,"byteOffset":0,"byteLength":792},{"buffer":26,"byteOffset":0,"byteLength":264},{"buffer":27,"byteOffset":0,"byteLength":1536},{"buffer":28,"byteOffset":0,"byteLength":792},{"buffer":29,"byteOffset":0,"byteLength":264},{"buffer":30,"byteOffset":0,"byteLength":1536},{"buffer":31,"byteOffset":0,"byteLength":792},{"buffer":32,"byteOffset":0,"byteLength":264},{"buffer":33,"byteOffset":0,"byteLength":96},{"buffer":34,"byteOffset":0,"byteLength":1536},{"buffer":35,"byteOffset":0,"byteLength":792},{"buffer":36,"byteOffset":0,"byteLength":3840},{"buffer":37,"byteOffset":0,"byteLength":1944},{"buffer":38,"byteOffset":0,"byteLength":648},{"buffer":39,"byteOffset":0,"byteLength":96},{"buffer":40,"byteOffset":0,"byteLength":96}]}