{"scene":0,"scenes":[{"nodes":[0]}],"asset":{"version":"2.0","generator":"https://github.com/mikedh/trimesh"},"accessors":[{"componentType":5125,"type":"SCALAR","bufferView":0,"count":288,"max":[49],"min":[0]},{"componentType":5126,"type":"VEC3","byteOffset":0,"bufferView":1,"count":50,"max":[0.5,0.054999999701976776,0.054999999701976776],"min":[-0.5,-0.054999999701976776,-0.054999999701976776]},{"componentType":5121,"normalized":true,"type":"VEC4","byteOffset":0,"bufferView":2,"count":50,"max":[94,108,87,255],"min":[94,108,87,255]},{"componentType":5125,"type":"SCALAR","bufferView":3,"count":36,"max":[7],"min":[0]},{"componentType":5126,"type":"VEC3","byteOffset":0,"bufferView":4,"count":8,"max":[0.125,0.07999999821186066,0.05999999865889549],"min":[-0.125,-0.07999999821186066,-0.05999999865889549]},{"componentType":5121,"normalized":true,"type":"VEC4","byteOffset":0,"bufferView":5,"count":8,"max":[58,60,63,255],"min":[58,60,63,255]},{"componentType":5126,"type":"VEC3","byteOffset":0,"bufferView":6,"count":8,"max":[0.09000000357627869,0.07000000029802322,0.07000000029802322],"min":[-0.09000000357627869,-0.07000000029802322,-0.07000000029802322]},{"componentType":5121,"normalized":true,"type":"VEC4","byteOffset":0,"bufferView":7,"count":8,"max":[146,131,101,255],"min":[146,131,101,255]},{"componentType":5126,"type":"VEC3","byteOffset":0,"bufferView":8,"count":8,"max":[0.029999999329447746,0.07999999821186066,0.019999999552965164],"min":[-0.029999999329447746,-0.07999999821186066,-0.019999999552965164]},{"componentType":5121,"normalized":true,"type":"VEC4","byteOffset":0,"bufferView":9,"count":8,"max":[42,44,48,255],"min":[42,44,48,255]},{"componentType":5126,"type":"VEC3","byteOffset":0,"bufferView":10,"count":8,"max":[0.03999999910593033,0.05999999865889549,0.02500000037252903],"min":[-0.03999999910593033,-0.05999999865889549,-0.02500000037252903]},{"componentType":5126,"type":"VEC3","byteOffset":0,"bufferView":11,"count":8,"max":[0.10000000149011612,0.03999999910593033,0.029999999329447746],"min":[-0.10000000149011612,-0.03999999910593033,-0.029999999329447746]},{"componentType":5121,"normalized":true,"type":"VEC4","byteOffset":0,"bufferView":12,"count":8,"max":[84,92,100,255],"min":[84,92,100,255]}],"meshes":[{"name":"metaverse_rocket_launcher_tube_geom","extras":{"shape":"cylinder","height":1,"radius":0.055,"processed":true},"primitives":[{"attributes":{"POSITION":1,"COLOR_0":2},"indices":0,"mode":4}]},{"name":"metaverse_rocket_launcher_rear_housing_geom","extras":{"shape":"box","extents":[0.25,0.16,0.12]},"primitives":[{"attributes":{"POSITION":4,"COLOR_0":5},"indices":3,"mode":4}]},{"name":"metaverse_rocket_launcher_front_shroud_geom","extras":{"shape":"box","extents":[0.18,0.14,0.14]},"primitives":[{"attributes":{"POSITION":6,"COLOR_0":7},"indices":3,"mode":4}]},{"name":"metaverse_rocket_launcher_primary_grip_geom","extras":{"shape":"box","extents":[0.06,0.16,0.04]},"primitives":[{"attributes":{"POSITION":8,"COLOR_0":9},"indices":3,"mode":4}]},{"name":"metaverse_rocket_launcher_support_handle_geom","extras":{"shape":"box","extents":[0.08,0.12,0.05]},"primitives":[{"attributes":{"POSITION":10,"COLOR_0":9},"indices":3,"mode":4}]},{"name":"metaverse_rocket_launcher_optic_body_geom","extras":{"shape":"box","extents":[0.2,0.08,0.06]},"primitives":[{"attributes":{"POSITION":11,"COLOR_0":12},"indices":3,"mode":4}]}],"nodes":[{"name":"metaverse_rocket_launcher_root","children":[1,2,3,4,5,6,7,8,9,10,11,12,13,14,15,16,17,18,19,20,21]},{"name":"metaverse_rocket_launcher_forward_marker","matrix":[1,0,0,0,0,1,0,0,0,0,1,0,1,0,0,1]},{"name":"metaverse_rocket_launcher_up_marker","matrix":[1,0,0,0,0,1,0,0,0,0,1,0,0,1,0,1]},{"name":"metaverse_rocket_launcher_grip_hand_r_socket","matrix":[1,0,0,0,0,1,0,0,0,0,1,0,0.18,-0.01,0,1]},{"name":"metaverse_rocket_launcher_trigger_marker","matrix":[1,0,0,0,0,1,0,0,0,0,1,0,0.24,0.02,0,1]},{"name":"metaverse_rocket_launcher_support_grip_marker","matrix":[1,0,0,0,0,1,0,0,0,0,1,0,0.41,-0.04,0.035,1]},{"name":"metaverse_rocket_launcher_grip_module_socket","matrix":[1,0,0,0,0,1,0,0,0,0,1,0,0.41,-0.065,0,1]},{"name":"metaverse_rocket_launcher_front_sight_socket","matrix":[1,0,0,0,0,1,0,0,0,0,1,0,0.88,0.17,0,1]},{"name":"metaverse_rocket_launcher_rear_sight_socket","matrix":[1,0,0,0,0,1,0,0,0,0,1,0,0.18,0.17,0,1]},{"name":"metaverse_rocket_launcher_optic_mount_socket","matrix":[1,0,0,0,0,1,0,0,0,0,1,0,0.26,0.2,0,1]},{"name":"metaverse_rocket_launcher_muzzle_socket","matrix":[1,0,0,0,0,1,0,0,0,0,1,0,1.01,0.08,0,1]},{"name":"metaverse_rocket_launcher_ads_camera_anchor","matrix":[1,0,0,0,0,1,0,0,0,0,1,0,0.02,0.19,0,1]},{"name":"metaverse_rocket_launcher_back_socket","matrix":[1,0,0,0,0,1,0,0,0,0,1,0,0.18,0.08,0,1]},{"name":"metaverse_rocket_launcher_tube","mesh":0,"matrix":[1,0,0,0,0,1,0,0,0,0,1,0,0.45,0.08,0,1]},{"name":"metaverse_rocket_launcher_rear_housing","mesh":1,"matrix":[1,0,0,0,0,1,0,0,0,0,1,0,-0.05,0.08,0,1]},{"name":"metaverse_rocket_launcher_front_shroud","mesh":2,"matrix":[1,0,0,0,0,1,0,0,0,0,1,0,0.92,0.08,0,1]},{"name":"metaverse_rocket_launcher_primary_grip","mesh":3,"matrix":[0.9950041652780258,0.09983341664682815,0,0,-0.09983341664682815,0.9950041652780258,0,0,0,0,1,0,0.18,-0.05,0,1]},{"name":"metaverse_rocket_launcher_support_handle","mesh":4,"matrix":[1,0,0,0,0,1,0,0,0,0,1,0,0.36,-0.02,0,1]},{"name":"metaverse_rocket_launcher_optic_body","mesh":5,"matrix":[1,0,0,0,0,1,0,0,0,0,1,0,0.25,0.18,0,1]},{"name":"metaverse_rocket_launcher_exhaust_socket","matrix":[1,0,0,0,0,1,0,0,0,0,1,0,-0.19,0.08,0,1]},{"name":"metaverse_rocket_launcher_backblast_cone_socket","matrix":[1,0,0,0,0,1,0,0,0,0,1,0,-0.42,0.08,0,1]},{"name":"metaverse_rocket_launcher_shoulder_contact_socket","matrix":[1,0,0,0,0,1,0,0,0,0,1,0,0.02,0.06,-0.075,1]}],"buffers":[{"uri":"data:application/octet-stream;base64,","byteLength":1152},{"uri":"data:application/octet-stream;base64,","byteLength":600},{"uri":"data:application/octet-stream;base64,","byteLength":200},{"uri":"data:application/octet-stream;base64,","byteLength":144},{"uri":"data:application/octet-stream;base64,","byteLength":96},{"uri":"data:application/octet-stream;base64,","byteLength":32},{"uri":"data:application/octet-stream;base64,","byteLength":96},{"uri":"data:application/octet-stream;base64,","byteLength":32},{"uri":"data:application/octet-stream;base64,","byteLength":96},{"uri":"data:application/octet-stream;base64,","byteLength":32},{"uri":"data:application/octet-stream;base64,","byteLength":96},{"uri":"data:application/octet-stream;base64,","byteLength":96},{"uri":"data:application/octet-stream;base64,","byteLength":32}],"bufferViews":[{"buffer":0,"byteOffset":0,"byteLength":1152},{"buffer":1,"byteOffset":0,"byteLength":600},{"buffer":2,"byteOffset":0,"byteLength":200},{"buffer":3,"byteOffset":0,"byteLength":144},{"buffer":4,"byteOffset":0,"byteLength":96},{"buffer":5,"byteOffset":0,"byteLength":32},{"buffer":6,"byteOffset":0,"byteLength":96},{"buffer":7,"byteOffset":0,"byteLength":32},{"buffer":8,"byteOffset":0,"byteLength":96},{"buffer":9,"byteOffset":0,"byteLength":32},{"buffer":10,"byteOffset":0,"byteLength":96},{"buffer":11,"byteOffset":0,"byteLength":96},{"buffer":12,"byteOffset":0,"byteLength":32}]}