{"scene":0,"scenes":[{"nodes":[0]}],"asset":{"version":"2.0","generator":"https://github.com/mikedh/trimesh"},"accessors":[{"componentType":5125,"type":"SCALAR","bufferView":0,"count":36,"max":[7],"min":[0]},{"componentType":5126,"type":"VEC3","byteOffset":0,"bufferView":1,"count":8,"max":[0.14000000059604645,0.04500000178813934,0.027499999850988388],"min":[-0.14000000059604645,-0.04500000178813934,-0.027499999850988388]},{"componentType":5121,"normalized":true,"type":"VEC4","byteOffset":0,"bufferView":2,"count":8,"max":[146,131,101,255],"min":[146,131,101,255]},{"componentType":5125,"type":"SCALAR","bufferView":3,"count":288,"max":[49],"min":[0]},{"componentType":5126,"type":"VEC3","byteOffset":0,"bufferView":4,"count":50,"max":[0.28999999165534973,0.010499999858438969,0.010499999858438969],"min":[-0.28999999165534973,-0.010499999858438969,-0.010499999858438969]},{"componentType":5121,"normalized":true,"type":"VEC4","byteOffset":0,"bufferView":5,"count":50,"max":[84,92,100,255],"min":[84,92,100,255]},{"componentType":5126,"type":"VEC3","byteOffset":0,"bufferView":6,"count":50,"max":[0.22499999403953552,0.008999999612569809,0.008999999612569809],"min":[-0.22499999403953552,-0.008999999612569809,-0.008999999612569809]},{"componentType":5121,"normalized":true,"type":"VEC4","byteOffset":0,"bufferView":7,"count":50,"max":[134,142,150,255],"min":[134,142,150,255]},{"componentType":5126,"type":"VEC3","byteOffset":0,"bufferView":8,"count":8,"max":[0.07000000029802322,0.029999999329447746,0.02500000037252903],"min":[-0.07000000029802322,-0.029999999329447746,-0.02500000037252903]},{"componentType":5121,"normalized":true,"type":"VEC4","byteOffset":0,"bufferView":9,"count":8,"max":[94,108,87,255],"min":[94,108,87,255]},{"componentType":5126,"type":"VEC3","byteOffset":0,"bufferView":10,"count":8,"max":[0.14000000059604645,0.05000000074505806,0.019999999552965164],"min":[-0.14000000059604645,-0.05000000074505806,-0.019999999552965164]},{"componentType":5121,"normalized":true,"type":"VEC4","byteOffset":0,"bufferView":11,"count":8,"max":[58,60,63,255],"min":[58,60,63,255]},{"componentType":5126,"type":"VEC3","byteOffset":0,"bufferView":12,"count":8,"max":[0.027499999850988388,0.06499999761581421,0.017500000074505806],"min":[-0.027499999850988388,-0.06499999761581421,-0.017500000074505806]}],"meshes":[{"name":"metaverse_breacher_shotgun_receiver_geom","extras":{"shape":"box","extents":[0.28,0.09,0.055]},"primitives":[{"attributes":{"POSITION":1,"COLOR_0":2},"indices":0,"mode":4}]},{"name":"metaverse_breacher_shotgun_barrel_geom","extras":{"shape":"cylinder","height":0.58,"radius":0.0105,"processed":true},"primitives":[{"attributes":{"POSITION":4,"COLOR_0":5},"indices":3,"mode":4}]},{"name":"metaverse_breacher_shotgun_tube_geom","extras":{"shape":"cylinder","height":0.45,"radius":0.009,"processed":true},"primitives":[{"attributes":{"POSITION":6,"COLOR_0":7},"indices":3,"mode":4}]},{"name":"metaverse_breacher_shotgun_pump_geom","extras":{"shape":"box","extents":[0.14,0.06,0.05]},"primitives":[{"attributes":{"POSITION":8,"COLOR_0":9},"indices":0,"mode":4}]},{"name":"metaverse_breacher_shotgun_stock_geom","extras":{"shape":"box","extents":[0.28,0.1,0.04]},"primitives":[{"attributes":{"POSITION":10,"COLOR_0":11},"indices":0,"mode":4}]},{"name":"metaverse_breacher_shotgun_grip_geom","extras":{"shape":"box","extents":[0.055,0.13,0.035]},"primitives":[{"attributes":{"POSITION":12,"COLOR_0":11},"indices":0,"mode":4}]}],"nodes":[{"name":"metaverse_breacher_shotgun_root","children":[1,2,3,4,5,6,7,8,9,10,11,12,13,14,15,16,17,18]},{"name":"metaverse_breacher_shotgun_forward_marker","matrix":[1.0,0.0,-0.0,0.0,0.0,1.0,0.0,0.0,0.0,0.0,1.0,0.0,1.0,0.0,0.0,1.0]},{"name":"metaverse_breacher_shotgun_up_marker","matrix":[1.0,0.0,-0.0,0.0,0.0,1.0,0.0,0.0,0.0,0.0,1.0,0.0,0.0,1.0,0.0,1.0]},{"name":"metaverse_breacher_shotgun_grip_hand_r_socket","matrix":[1.0,0.0,-0.0,0.0,0.0,1.0,0.0,0.0,0.0,0.0,1.0,0.0,0.03,-0.02,0.0,1.0]},{"name":"metaverse_breacher_shotgun_trigger_marker","matrix":[1.0,0.0,-0.0,0.0,0.0,1.0,0.0,0.0,0.0,0.0,1.0,0.0,0.1,0.0,0.0,1.0]},{"name":"metaverse_breacher_shotgun_support_grip_marker","matrix":[1.0,0.0,-0.0,0.0,0.0,1.0,0.0,0.0,0.0,0.0,1.0,0.0,0.29,-0.03,0.03,1.0]},{"name":"metaverse_breacher_shotgun_grip_module_socket","matrix":[1.0,0.0,-0.0,0.0,0.0,1.0,0.0,0.0,0.0,0.0,1.0,0.0,0.31,-0.05,0.0,1.0]},{"name":"metaverse_breacher_shotgun_front_sight_socket","matrix":[1.0,0.0,-0.0,0.0,0.0,1.0,0.0,0.0,0.0,0.0,1.0,0.0,0.84,0.085,0.0,1.0]},{"name":"metaverse_breacher_shotgun_rear_sight_socket","matrix":[1.0,0.0,-0.0,0.0,0.0,1.0,0.0,0.0,0.0,0.0,1.0,0.0,0.12,0.105,0.0,1.0]},{"name":"metaverse_breacher_shotgun_optic_mount_socket","matrix":[1.0,0.0,-0.0,0.0,0.0,1.0,0.0,0.0,0.0,0.0,1.0,0.0,0.2,0.105,0.0,1.0]},{"name":"metaverse_breacher_shotgun_muzzle_socket","matrix":[1.0,0.0,-0.0,0.0,0.0,1.0,0.0,0.0,0.0,0.0,1.0,0.0,0.88,0.06,0.0,1.0]},{"name":"metaverse_breacher_shotgun_ads_camera_anchor","matrix":[1.0,0.0,-0.0,0.0,0.0,1.0,0.0,0.0,0.0,0.0,1.0,0.0,-0.02,0.1,0.0,1.0]},{"name":"metaverse_breacher_shotgun_back_socket","matrix":[1.0,0.0,-0.0,0.0,0.0,1.0,0.0,0.0,0.0,0.0,1.0,0.0,0.1,0.05,0.0,1.0]},{"name":"metaverse_breacher_shotgun_receiver","mesh":0,"matrix":[1.0,0.0,-0.0,0.0,0.0,1.0,0.0,0.0,0.0,0.0,1.0,0.0,0.12,0.05,0.0,1.0]},{"name":"metaverse_breacher_shotgun_barrel","mesh":1,"matrix":[1.0,0.0,-0.0,0.0,0.0,1.0,0.0,0.0,0.0,0.0,1.0,0.0,0.58,0.06,0.0,1.0]},{"name":"metaverse_breacher_shotgun_tube","mesh":2,"matrix":[1.0,0.0,-0.0,0.0,0.0,1.0,0.0,0.0,0.0,0.0,1.0,0.0,0.48,0.03,0.0,1.0]},{"name":"metaverse_breacher_shotgun_pump","mesh":3,"matrix":[1.0,0.0,-0.0,0.0,0.0,1.0,0.0,0.0,0.0,0.0,1.0,0.0,0.31,0.01,0.0,1.0]},{"name":"metaverse_breacher_shotgun_stock","mesh":4,"matrix":[1.0,0.0,-0.0,0.0,0.0,1.0,0.0,0.0,0.0,0.0,1.0,0.0,-0.18,0.05,0.0,1.0]},{"name":"metaverse_breacher_shotgun_grip","mesh":5,"matrix":[0.9838436927881214,0.17902957342582418,-0.0,0.0,-0.17902957342582418,0.9838436927881214,0.0,0.0,0.0,0.0,1.0,0.0,0.02,-0.055,0.0,1.0]}],"buffers":[{"uri":"data:application/octet-stream;base64,","byteLength":144},{"uri":"data:application/octet-stream;base64,","byteLength":96},{"uri":"data:application/octet-stream;base64,","byteLength":32},{"uri":"data:application/octet-stream;base64,","byteLength":1152},{"uri":"data:application/octet-stream;base64,","byteLength":600},{"uri":"data:application/octet-stream;base64,","byteLength":200},{"uri":"data:application/octet-stream;base64,","byteLength":600},{"uri":"data:application/octet-stream;base64,","byteLength":200},{"uri":"data:application/octet-stream;base64,","byteLength":96},{"uri":"data:application/octet-stream;base64,","byteLength":32},{"uri":"data:application/octet-stream;base64,","byteLength":96},{"uri":"data:application/octet-stream;base64,","byteLength":32},{"uri":"data:application/octet-stream;base64,","byteLength":96}],"bufferViews":[{"buffer":0,"byteOffset":0,"byteLength":144},{"buffer":1,"byteOffset":0,"byteLength":96},{"buffer":2,"byteOffset":0,"byteLength":32},{"buffer":3,"byteOffset":0,"byteLength":1152},{"buffer":4,"byteOffset":0,"byteLength":600},{"buffer":5,"byteOffset":0,"byteLength":200},{"buffer":6,"byteOffset":0,"byteLength":600},{"buffer":7,"byteOffset":0,"byteLength":200},{"buffer":8,"byteOffset":0,"byteLength":96},{"buffer":9,"byteOffset":0,"byteLength":32},{"buffer":10,"byteOffset":0,"byteLength":96},{"buffer":11,"byteOffset":0,"byteLength":32},{"buffer":12,"byteOffset":0,"byteLength":96}]}