{"scene":0,"scenes":[{"nodes":[0]}],"asset":{"version":"2.0","generator":"https://github.com/mikedh/trimesh"},"accessors":[{"componentType":5125,"type":"SCALAR","bufferView":0,"count":36,"max":[7],"min":[0]},{"componentType":5126,"type":"VEC3","byteOffset":0,"bufferView":1,"count":8,"max":[0.10000000149011612,0.014999999664723873,0.017500000074505806],"min":[-0.10000000149011612,-0.014999999664723873,-0.017500000074505806]},{"componentType":5121,"normalized":true,"type":"VEC4","byteOffset":0,"bufferView":2,"count":8,"max":[134,142,150,255],"min":[134,142,150,255]},{"componentType":5125,"type":"SCALAR","bufferView":3,"count":288,"max":[49],"min":[0]},{"componentType":5126,"type":"VEC3","byteOffset":0,"bufferView":4,"count":50,"max":[0.03999999910593033,0.009499999694526196,0.009499999694526196],"min":[-0.03999999910593033,-0.009499999694526196,-0.009499999694526196]},{"componentType":5121,"normalized":true,"type":"VEC4","byteOffset":0,"bufferView":5,"count":50,"max":[84,92,100,255],"min":[84,92,100,255]},{"componentType":5126,"type":"VEC3","byteOffset":0,"bufferView":6,"count":8,"max":[0.09000000357627869,0.019999999552965164,0.014999999664723873],"min":[-0.09000000357627869,-0.019999999552965164,-0.014999999664723873]},{"componentType":5121,"normalized":true,"type":"VEC4","byteOffset":0,"bufferView":7,"count":8,"max":[42,44,48,255],"min":[42,44,48,255]},{"componentType":5126,"type":"VEC3","byteOffset":0,"bufferView":8,"count":8,"max":[0.02500000037252903,0.054999999701976776,0.014000000432133675],"min":[-0.02500000037252903,-0.054999999701976776,-0.014000000432133675]},{"componentType":5121,"normalized":true,"type":"VEC4","byteOffset":0,"bufferView":9,"count":8,"max":[58,60,63,255],"min":[58,60,63,255]},{"componentType":5126,"type":"VEC3","byteOffset":0,"bufferView":10,"count":8,"max":[0.029999999329447746,0.014000000432133675,0.004000000189989805],"min":[-0.029999999329447746,-0.014000000432133675,-0.004000000189989805]},{"componentType":5121,"normalized":true,"type":"VEC4","byteOffset":0,"bufferView":11,"count":8,"max":[84,92,100,255],"min":[84,92,100,255]},{"componentType":5126,"type":"VEC3","byteOffset":0,"bufferView":12,"count":8,"max":[0.01899999938905239,0.004000000189989805,0.013000000268220901],"min":[-0.01899999938905239,-0.004000000189989805,-0.013000000268220901]}],"meshes":[{"name":"metaverse_service_pistol_slide_geom","extras":{"shape":"box","extents":[0.2,0.03,0.035]},"primitives":[{"attributes":{"POSITION":1,"COLOR_0":2},"indices":0,"mode":4}]},{"name":"metaverse_service_pistol_barrel_geom","extras":{"shape":"cylinder","height":0.08,"radius":0.0095,"processed":true},"primitives":[{"attributes":{"POSITION":4,"COLOR_0":5},"indices":3,"mode":4}]},{"name":"metaverse_service_pistol_frame_geom","extras":{"shape":"box","extents":[0.18,0.04,0.03]},"primitives":[{"attributes":{"POSITION":6,"COLOR_0":7},"indices":0,"mode":4}]},{"name":"metaverse_service_pistol_grip_geom","extras":{"shape":"box","extents":[0.05,0.11,0.028]},"primitives":[{"attributes":{"POSITION":8,"COLOR_0":9},"indices":0,"mode":4}]},{"name":"metaverse_service_pistol_trigger_guard_geom","extras":{"shape":"box","extents":[0.06,0.028,0.008]},"primitives":[{"attributes":{"POSITION":10,"COLOR_0":11},"indices":0,"mode":4}]},{"name":"metaverse_service_pistol_mag_floorplate_geom","extras":{"shape":"box","extents":[0.038,0.008,0.026]},"primitives":[{"attributes":{"POSITION":12,"COLOR_0":7},"indices":0,"mode":4}]}],"nodes":[{"name":"metaverse_service_pistol_root","children":[1,2,3,4,5,6,7,8,9,10,11,12,13,14,15,16,17]},{"name":"metaverse_service_pistol_forward_marker","matrix":[1,0,0,0,0,1,0,0,0,0,1,0,1,0,0,1]},{"name":"metaverse_service_pistol_up_marker","matrix":[1,0,0,0,0,1,0,0,0,0,1,0,0,1,0,1]},{"name":"metaverse_service_pistol_grip_hand_r_socket","matrix":[1,0,0,0,0,1,0,0,0,0,1,0,0.079,-0.048,0.006,1]},{"name":"metaverse_service_pistol_trigger_marker","matrix":[1,0,0,0,0,1,0,0,0,0,1,0,0.082,-0.061,-0.008,1]},{"name":"metaverse_service_pistol_support_marker","matrix":[1,0,0,0,0,1,0,0,0,0,1,0,0.037,-0.137,0,1]},{"name":"metaverse_service_pistol_front_sight_socket","matrix":[1,0,0,0,0,1,0,0,0,0,1,0,0.286,0.064,0,1]},{"name":"metaverse_service_pistol_rear_sight_socket","matrix":[1,0,0,0,0,1,0,0,0,0,1,0,0.082,0.061,0,1]},{"name":"metaverse_service_pistol_optic_mount_socket","matrix":[1,0,0,0,0,1,0,0,0,0,1,0,0.145,0.061,0,1]},{"name":"metaverse_service_pistol_muzzle_socket","matrix":[1,0,0,0,0,1,0,0,0,0,1,0,0.312,0.03,0,1]},{"name":"metaverse_service_pistol_ads_camera_anchor","matrix":[1,0,0,0,0,1,0,0,0,0,1,0,0.016,0.059,0,1]},{"name":"metaverse_service_pistol_back_socket","matrix":[1,0,0,0,0,1,0,0,0,0,1,0,0.072,0.012,0,1]},{"name":"metaverse_service_pistol_slide","mesh":0,"matrix":[1,0,0,0,0,1,0,0,0,0,1,0,0.17,0.045,0,1]},{"name":"metaverse_service_pistol_barrel","mesh":1,"matrix":[1,0,0,0,0,1,0,0,0,0,1,0,0.275,0.03,0,1]},{"name":"metaverse_service_pistol_frame","mesh":2,"matrix":[1,0,0,0,0,1,0,0,0,0,1,0,0.11,-0.003,0,1]},{"name":"metaverse_service_pistol_grip","mesh":3,"matrix":[0.9838436927881214,0.17902957342582418,0,0,-0.17902957342582418,0.9838436927881214,0,0,0,0,1,0,0.04,-0.085,0,1]},{"name":"metaverse_service_pistol_trigger_guard","mesh":4,"matrix":[1,0,0,0,0,1,0,0,0,0,1,0,0.082,-0.055,0,1]},{"name":"metaverse_service_pistol_mag_floorplate","mesh":5,"matrix":[1,0,0,0,0,1,0,0,0,0,1,0,0.018,-0.137,0,1]}],"buffers":[{"uri":"data:application/octet-stream;base64,","byteLength":144},{"uri":"data:application/octet-stream;base64,","byteLength":96},{"uri":"data:application/octet-stream;base64,","byteLength":32},{"uri":"data:application/octet-stream;base64,","byteLength":1152},{"uri":"data:application/octet-stream;base64,","byteLength":600},{"uri":"data:application/octet-stream;base64,","byteLength":200},{"uri":"data:application/octet-stream;base64,","byteLength":96},{"uri":"data:application/octet-stream;base64,","byteLength":32},{"uri":"data:application/octet-stream;base64,","byteLength":96},{"uri":"data:application/octet-stream;base64,","byteLength":32},{"uri":"data:application/octet-stream;base64,","byteLength":96},{"uri":"data:application/octet-stream;base64,","byteLength":32},{"uri":"data:application/octet-stream;base64,","byteLength":96}],"bufferViews":[{"buffer":0,"byteOffset":0,"byteLength":144},{"buffer":1,"byteOffset":0,"byteLength":96},{"buffer":2,"byteOffset":0,"byteLength":32},{"buffer":3,"byteOffset":0,"byteLength":1152},{"buffer":4,"byteOffset":0,"byteLength":600},{"buffer":5,"byteOffset":0,"byteLength":200},{"buffer":6,"byteOffset":0,"byteLength":96},{"buffer":7,"byteOffset":0,"byteLength":32},{"buffer":8,"byteOffset":0,"byteLength":96},{"buffer":9,"byteOffset":0,"byteLength":32},{"buffer":10,"byteOffset":0,"byteLength":96},{"buffer":11,"byteOffset":0,"byteLength":32},{"buffer":12,"byteOffset":0,"byteLength":96}]}