{"scene":0,"scenes":[{"nodes":[0]}],"asset":{"version":"2.0","generator":"https://github.com/mikedh/trimesh"},"accessors":[{"componentType":5125,"type":"SCALAR","bufferView":0,"count":36,"max":[7],"min":[0]},{"componentType":5126,"type":"VEC3","byteOffset":0,"bufferView":1,"count":8,"max":[0.17000000178813934,0.03999999910593033,0.02500000037252903],"min":[-0.17000000178813934,-0.03999999910593033,-0.02500000037252903]},{"componentType":5121,"normalized":true,"type":"VEC4","byteOffset":0,"bufferView":2,"count":8,"max":[42,44,48,255],"min":[42,44,48,255]},{"componentType":5125,"type":"SCALAR","bufferView":3,"count":288,"max":[49],"min":[0]},{"componentType":5126,"type":"VEC3","byteOffset":0,"bufferView":4,"count":50,"max":[0.10999999940395355,0.012000000104308128,0.012000000104308128],"min":[-0.10999999940395355,-0.012000000104308128,-0.012000000104308128]},{"componentType":5121,"normalized":true,"type":"VEC4","byteOffset":0,"bufferView":5,"count":50,"max":[84,92,100,255],"min":[84,92,100,255]},{"componentType":5126,"type":"VEC3","byteOffset":0,"bufferView":6,"count":8,"max":[0.09000000357627869,0.029999999329447746,0.014999999664723873],"min":[-0.09000000357627869,-0.029999999329447746,-0.014999999664723873]},{"componentType":5121,"normalized":true,"type":"VEC4","byteOffset":0,"bufferView":7,"count":8,"max":[58,60,63,255],"min":[58,60,63,255]},{"componentType":5126,"type":"VEC3","byteOffset":0,"bufferView":8,"count":8,"max":[0.09000000357627869,0.02500000037252903,0.02250000089406967],"min":[-0.09000000357627869,-0.02500000037252903,-0.02250000089406967]},{"componentType":5121,"normalized":true,"type":"VEC4","byteOffset":0,"bufferView":9,"count":8,"max":[84,92,100,255],"min":[84,92,100,255]},{"componentType":5126,"type":"VEC3","byteOffset":0,"bufferView":10,"count":8,"max":[0.027499999850988388,0.06499999761581421,0.017500000074505806],"min":[-0.027499999850988388,-0.06499999761581421,-0.017500000074505806]},{"componentType":5126,"type":"VEC3","byteOffset":0,"bufferView":11,"count":8,"max":[0.02500000037252903,0.05999999865889549,0.014999999664723873],"min":[-0.02500000037252903,-0.05999999865889549,-0.014999999664723873]},{"componentType":5121,"normalized":true,"type":"VEC4","byteOffset":0,"bufferView":12,"count":8,"max":[134,142,150,255],"min":[134,142,150,255]}],"meshes":[{"name":"metaverse_compact_smg_receiver_geom","extras":{"shape":"box","extents":[0.34,0.08,0.05]},"primitives":[{"attributes":{"POSITION":1,"COLOR_0":2},"indices":0,"mode":4}]},{"name":"metaverse_compact_smg_barrel_geom","extras":{"shape":"cylinder","height":0.22,"radius":0.012,"processed":true},"primitives":[{"attributes":{"POSITION":4,"COLOR_0":5},"indices":3,"mode":4}]},{"name":"metaverse_compact_smg_stock_geom","extras":{"shape":"box","extents":[0.18,0.06,0.03]},"primitives":[{"attributes":{"POSITION":6,"COLOR_0":7},"indices":0,"mode":4}]},{"name":"metaverse_compact_smg_handguard_geom","extras":{"shape":"box","extents":[0.18,0.05,0.045]},"primitives":[{"attributes":{"POSITION":8,"COLOR_0":9},"indices":0,"mode":4}]},{"name":"metaverse_compact_smg_grip_geom","extras":{"shape":"box","extents":[0.055,0.13,0.035]},"primitives":[{"attributes":{"POSITION":10,"COLOR_0":7},"indices":0,"mode":4}]},{"name":"metaverse_compact_smg_magazine_geom","extras":{"shape":"box","extents":[0.05,0.12,0.03]},"primitives":[{"attributes":{"POSITION":11,"COLOR_0":12},"indices":0,"mode":4}]}],"nodes":[{"name":"metaverse_compact_smg_root","children":[1,2,3,4,5,6,7,8,9,10,11,12,13,14,15,16,17,18]},{"name":"metaverse_compact_smg_forward_marker","matrix":[1.0,0.0,-0.0,0.0,0.0,1.0,0.0,0.0,0.0,0.0,1.0,0.0,1.0,0.0,0.0,1.0]},{"name":"metaverse_compact_smg_up_marker","matrix":[1.0,0.0,-0.0,0.0,0.0,1.0,0.0,0.0,0.0,0.0,1.0,0.0,0.0,1.0,0.0,1.0]},{"name":"metaverse_compact_smg_grip_hand_r_socket","matrix":[1.0,0.0,-0.0,0.0,0.0,1.0,0.0,0.0,0.0,0.0,1.0,0.0,0.045,-0.018,0.0,1.0]},{"name":"metaverse_compact_smg_trigger_marker","matrix":[1.0,0.0,-0.0,0.0,0.0,1.0,0.0,0.0,0.0,0.0,1.0,0.0,0.115,0.0,0.0,1.0]},{"name":"metaverse_compact_smg_support_grip_marker","matrix":[1.0,0.0,-0.0,0.0,0.0,1.0,0.0,0.0,0.0,0.0,1.0,0.0,0.23,-0.025,0.03,1.0]},{"name":"metaverse_compact_smg_grip_module_socket","matrix":[1.0,0.0,-0.0,0.0,0.0,1.0,0.0,0.0,0.0,0.0,1.0,0.0,0.22,-0.04,0.0,1.0]},{"name":"metaverse_compact_smg_front_sight_socket","matrix":[1.0,0.0,-0.0,0.0,0.0,1.0,0.0,0.0,0.0,0.0,1.0,0.0,0.47,0.085,0.0,1.0]},{"name":"metaverse_compact_smg_rear_sight_socket","matrix":[1.0,0.0,-0.0,0.0,0.0,1.0,0.0,0.0,0.0,0.0,1.0,0.0,0.18,0.085,0.0,1.0]},{"name":"metaverse_compact_smg_optic_mount_socket","matrix":[1.0,0.0,-0.0,0.0,0.0,1.0,0.0,0.0,0.0,0.0,1.0,0.0,0.22,0.085,0.0,1.0]},{"name":"metaverse_compact_smg_muzzle_socket","matrix":[1.0,0.0,-0.0,0.0,0.0,1.0,0.0,0.0,0.0,0.0,1.0,0.0,0.5,0.045,0.0,1.0]},{"name":"metaverse_compact_smg_ads_camera_anchor","matrix":[1.0,0.0,-0.0,0.0,0.0,1.0,0.0,0.0,0.0,0.0,1.0,0.0,0.08,0.082,0.0,1.0]},{"name":"metaverse_compact_smg_back_socket","matrix":[1.0,0.0,-0.0,0.0,0.0,1.0,0.0,0.0,0.0,0.0,1.0,0.0,0.02,0.05,0.0,1.0]},{"name":"metaverse_compact_smg_receiver","mesh":0,"matrix":[1.0,0.0,-0.0,0.0,0.0,1.0,0.0,0.0,0.0,0.0,1.0,0.0,0.14,0.05,0.0,1.0]},{"name":"metaverse_compact_smg_barrel","mesh":1,"matrix":[1.0,0.0,-0.0,0.0,0.0,1.0,0.0,0.0,0.0,0.0,1.0,0.0,0.39,0.045,0.0,1.0]},{"name":"metaverse_compact_smg_stock","mesh":2,"matrix":[1.0,0.0,-0.0,0.0,0.0,1.0,0.0,0.0,0.0,0.0,1.0,0.0,-0.14,0.055,0.0,1.0]},{"name":"metaverse_compact_smg_handguard","mesh":3,"matrix":[1.0,0.0,-0.0,0.0,0.0,1.0,0.0,0.0,0.0,0.0,1.0,0.0,0.27,0.01,0.0,1.0]},{"name":"metaverse_compact_smg_grip","mesh":4,"matrix":[0.9887710779360422,0.14943813247359922,-0.0,0.0,-0.14943813247359922,0.9887710779360422,0.0,0.0,0.0,0.0,1.0,0.0,0.045,-0.05,0.0,1.0]},{"name":"metaverse_compact_smg_magazine","mesh":5,"matrix":[1.0,0.0,-0.0,0.0,0.0,1.0,0.0,0.0,0.0,0.0,1.0,0.0,0.12,-0.07,0.0,1.0]}],"buffers":[{"uri":"data:application/octet-stream;base64,","byteLength":144},{"uri":"data:application/octet-stream;base64,","byteLength":96},{"uri":"data:application/octet-stream;base64,","byteLength":32},{"uri":"data:application/octet-stream;base64,","byteLength":1152},{"uri":"data:application/octet-stream;base64,","byteLength":600},{"uri":"data:application/octet-stream;base64,","byteLength":200},{"uri":"data:application/octet-stream;base64,","byteLength":96},{"uri":"data:application/octet-stream;base64,","byteLength":32},{"uri":"data:application/octet-stream;base64,","byteLength":96},{"uri":"data:application/octet-stream;base64,","byteLength":32},{"uri":"data:application/octet-stream;base64,","byteLength":96},{"uri":"data:application/octet-stream;base64,","byteLength":96},{"uri":"data:application/octet-stream;base64,","byteLength":32}],"bufferViews":[{"buffer":0,"byteOffset":0,"byteLength":144},{"buffer":1,"byteOffset":0,"byteLength":96},{"buffer":2,"byteOffset":0,"byteLength":32},{"buffer":3,"byteOffset":0,"byteLength":1152},{"buffer":4,"byteOffset":0,"byteLength":600},{"buffer":5,"byteOffset":0,"byteLength":200},{"buffer":6,"byteOffset":0,"byteLength":96},{"buffer":7,"byteOffset":0,"byteLength":32},{"buffer":8,"byteOffset":0,"byteLength":96},{"buffer":9,"byteOffset":0,"byteLength":32},{"buffer":10,"byteOffset":0,"byteLength":96},{"buffer":11,"byteOffset":0,"byteLength":96},{"buffer":12,"byteOffset":0,"byteLength":32}]}