{"scene":0,"scenes":[{"nodes":[0]}],"asset":{"version":"2.0","generator":"https://github.com/mikedh/trimesh"},"accessors":[{"componentType":5125,"type":"SCALAR","bufferView":0,"count":36,"max":[7],"min":[0]},{"componentType":5126,"type":"VEC3","byteOffset":0,"bufferView":1,"count":8,"max":[0.1899999976158142,0.042500000447034836,0.027499999850988388],"min":[-0.1899999976158142,-0.042500000447034836,-0.027499999850988388]},{"componentType":5121,"normalized":true,"type":"VEC4","byteOffset":0,"bufferView":2,"count":8,"max":[146,131,101,255],"min":[146,131,101,255]},{"componentType":5126,"type":"VEC3","byteOffset":0,"bufferView":3,"count":8,"max":[0.11999999731779099,0.029999999329447746,0.02250000089406967],"min":[-0.11999999731779099,-0.029999999329447746,-0.02250000089406967]},{"componentType":5121,"normalized":true,"type":"VEC4","byteOffset":0,"bufferView":4,"count":8,"max":[94,108,87,255],"min":[94,108,87,255]},{"componentType":5125,"type":"SCALAR","bufferView":5,"count":288,"max":[49],"min":[0]},{"componentType":5126,"type":"VEC3","byteOffset":0,"bufferView":6,"count":50,"max":[0.12999999523162842,0.011500000022351742,0.011500000022351742],"min":[-0.12999999523162842,-0.011500000022351742,-0.011500000022351742]},{"componentType":5121,"normalized":true,"type":"VEC4","byteOffset":0,"bufferView":7,"count":50,"max":[84,92,100,255],"min":[84,92,100,255]},{"componentType":5126,"type":"VEC3","byteOffset":0,"bufferView":8,"count":8,"max":[0.11999999731779099,0.03999999910593033,0.017500000074505806],"min":[-0.11999999731779099,-0.03999999910593033,-0.017500000074505806]},{"componentType":5121,"normalized":true,"type":"VEC4","byteOffset":0,"bufferView":9,"count":8,"max":[58,60,63,255],"min":[58,60,63,255]},{"componentType":5126,"type":"VEC3","byteOffset":0,"bufferView":10,"count":8,"max":[0.027499999850988388,0.06499999761581421,0.017500000074505806],"min":[-0.027499999850988388,-0.06499999761581421,-0.017500000074505806]},{"componentType":5126,"type":"VEC3","byteOffset":0,"bufferView":11,"count":8,"max":[0.029999999329447746,0.07999999821186066,0.019999999552965164],"min":[-0.029999999329447746,-0.07999999821186066,-0.019999999552965164]},{"componentType":5121,"normalized":true,"type":"VEC4","byteOffset":0,"bufferView":12,"count":8,"max":[42,44,48,255],"min":[42,44,48,255]},{"componentType":5126,"type":"VEC3","byteOffset":0,"bufferView":13,"count":8,"max":[0.10999999940395355,0.010999999940395355,0.02250000089406967],"min":[-0.10999999940395355,-0.010999999940395355,-0.02250000089406967]},{"componentType":5121,"normalized":true,"type":"VEC4","byteOffset":0,"bufferView":14,"count":8,"max":[84,92,100,255],"min":[84,92,100,255]}],"meshes":[{"name":"metaverse_battle_rifle_receiver_geom","extras":{"shape":"box","extents":[0.38,0.085,0.055]},"primitives":[{"attributes":{"POSITION":1,"COLOR_0":2},"indices":0,"mode":4}]},{"name":"metaverse_battle_rifle_handguard_geom","extras":{"shape":"box","extents":[0.24,0.06,0.045]},"primitives":[{"attributes":{"POSITION":3,"COLOR_0":4},"indices":0,"mode":4}]},{"name":"metaverse_battle_rifle_barrel_geom","extras":{"shape":"cylinder","height":0.26,"radius":0.0115,"processed":true},"primitives":[{"attributes":{"POSITION":6,"COLOR_0":7},"indices":5,"mode":4}]},{"name":"metaverse_battle_rifle_stock_geom","extras":{"shape":"box","extents":[0.24,0.08,0.035]},"primitives":[{"attributes":{"POSITION":8,"COLOR_0":9},"indices":0,"mode":4}]},{"name":"metaverse_battle_rifle_grip_geom","extras":{"shape":"box","extents":[0.055,0.13,0.035]},"primitives":[{"attributes":{"POSITION":10,"COLOR_0":9},"indices":0,"mode":4}]},{"name":"metaverse_battle_rifle_magazine_geom","extras":{"shape":"box","extents":[0.06,0.16,0.04]},"primitives":[{"attributes":{"POSITION":11,"COLOR_0":12},"indices":0,"mode":4}]},{"name":"metaverse_battle_rifle_top_rail_geom","extras":{"shape":"box","extents":[0.22,0.022,0.045]},"primitives":[{"attributes":{"POSITION":13,"COLOR_0":14},"indices":0,"mode":4}]}],"nodes":[{"name":"metaverse_battle_rifle_root","children":[1,2,3,4,5,6,7,8,9,10,11,12,13,14,15,16,17,18,19]},{"name":"metaverse_battle_rifle_forward_marker","matrix":[1.0,0.0,-0.0,0.0,0.0,1.0,0.0,0.0,0.0,0.0,1.0,0.0,1.0,0.0,0.0,1.0]},{"name":"metaverse_battle_rifle_up_marker","matrix":[1.0,0.0,-0.0,0.0,0.0,1.0,0.0,0.0,0.0,0.0,1.0,0.0,0.0,1.0,0.0,1.0]},{"name":"metaverse_battle_rifle_grip_hand_r_socket","matrix":[1.0,0.0,-0.0,0.0,0.0,1.0,0.0,0.0,0.0,0.0,1.0,0.0,0.08,-0.02,0.0,1.0]},{"name":"metaverse_battle_rifle_trigger_marker","matrix":[1.0,0.0,-0.0,0.0,0.0,1.0,0.0,0.0,0.0,0.0,1.0,0.0,0.16,0.0,0.0,1.0]},{"name":"metaverse_battle_rifle_support_grip_marker","matrix":[1.0,0.0,-0.0,0.0,0.0,1.0,0.0,0.0,0.0,0.0,1.0,0.0,0.31,-0.022,0.028,1.0]},{"name":"metaverse_battle_rifle_grip_module_socket","matrix":[1.0,0.0,-0.0,0.0,0.0,1.0,0.0,0.0,0.0,0.0,1.0,0.0,0.32,-0.04,0.0,1.0]},{"name":"metaverse_battle_rifle_front_sight_socket","matrix":[1.0,0.0,-0.0,0.0,0.0,1.0,0.0,0.0,0.0,0.0,1.0,0.0,0.79,0.096,0.0,1.0]},{"name":"metaverse_battle_rifle_rear_sight_socket","matrix":[1.0,0.0,-0.0,0.0,0.0,1.0,0.0,0.0,0.0,0.0,1.0,0.0,0.18,0.116,0.0,1.0]},{"name":"metaverse_battle_rifle_optic_mount_socket","matrix":[1.0,0.0,-0.0,0.0,0.0,1.0,0.0,0.0,0.0,0.0,1.0,0.0,0.33,0.116,0.0,1.0]},{"name":"metaverse_battle_rifle_muzzle_socket","matrix":[1.0,0.0,-0.0,0.0,0.0,1.0,0.0,0.0,0.0,0.0,1.0,0.0,0.82,0.05,0.0,1.0]},{"name":"metaverse_battle_rifle_ads_camera_anchor","matrix":[1.0,0.0,-0.0,0.0,0.0,1.0,0.0,0.0,0.0,0.0,1.0,0.0,0.03,0.11,0.0,1.0]},{"name":"metaverse_battle_rifle_back_socket","matrix":[1.0,0.0,-0.0,0.0,0.0,1.0,0.0,0.0,0.0,0.0,1.0,0.0,0.12,0.04,0.0,1.0]},{"name":"metaverse_battle_rifle_receiver","mesh":0,"matrix":[1.0,0.0,-0.0,0.0,0.0,1.0,0.0,0.0,0.0,0.0,1.0,0.0,0.16,0.06,0.0,1.0]},{"name":"metaverse_battle_rifle_handguard","mesh":1,"matrix":[1.0,0.0,-0.0,0.0,0.0,1.0,0.0,0.0,0.0,0.0,1.0,0.0,0.43,0.04,0.0,1.0]},{"name":"metaverse_battle_rifle_barrel","mesh":2,"matrix":[1.0,0.0,-0.0,0.0,0.0,1.0,0.0,0.0,0.0,0.0,1.0,0.0,0.67,0.05,0.0,1.0]},{"name":"metaverse_battle_rifle_stock","mesh":3,"matrix":[1.0,0.0,-0.0,0.0,0.0,1.0,0.0,0.0,0.0,0.0,1.0,0.0,-0.15,0.05,0.0,1.0]},{"name":"metaverse_battle_rifle_grip","mesh":4,"matrix":[0.9838436927881214,0.17902957342582418,-0.0,0.0,-0.17902957342582418,0.9838436927881214,0.0,0.0,0.0,0.0,1.0,0.0,0.08,-0.055,0.0,1.0]},{"name":"metaverse_battle_rifle_magazine","mesh":5,"matrix":[1.0,0.0,-0.0,0.0,0.0,1.0,0.0,0.0,0.0,0.0,1.0,0.0,0.19,-0.08,0.0,1.0]},{"name":"metaverse_battle_rifle_top_rail","mesh":6,"matrix":[1.0,0.0,-0.0,0.0,0.0,1.0,0.0,0.0,0.0,0.0,1.0,0.0,0.24,0.118,0.0,1.0]}],"buffers":[{"uri":"data:application/octet-stream;base64,","byteLength":144},{"uri":"data:application/octet-stream;base64,","byteLength":96},{"uri":"data:application/octet-stream;base64,","byteLength":32},{"uri":"data:application/octet-stream;base64,","byteLength":96},{"uri":"data:application/octet-stream;base64,","byteLength":32},{"uri":"data:application/octet-stream;base64,","byteLength":1152},{"uri":"data:application/octet-stream;base64,","byteLength":600},{"uri":"data:application/octet-stream;base64,","byteLength":200},{"uri":"data:application/octet-stream;base64,","byteLength":96},{"uri":"data:application/octet-stream;base64,","byteLength":32},{"uri":"data:application/octet-stream;base64,","byteLength":96},{"uri":"data:application/octet-stream;base64,","byteLength":96},{"uri":"data:application/octet-stream;base64,","byteLength":32},{"uri":"data:application/octet-stream;base64,","byteLength":96},{"uri":"data:application/octet-stream;base64,","byteLength":32}],"bufferViews":[{"buffer":0,"byteOffset":0,"byteLength":144},{"buffer":1,"byteOffset":0,"byteLength":96},{"buffer":2,"byteOffset":0,"byteLength":32},{"buffer":3,"byteOffset":0,"byteLength":96},{"buffer":4,"byteOffset":0,"byteLength":32},{"buffer":5,"byteOffset":0,"byteLength":1152},{"buffer":6,"byteOffset":0,"byteLength":600},{"buffer":7,"byteOffset":0,"byteLength":200},{"buffer":8,"byteOffset":0,"byteLength":96},{"buffer":9,"byteOffset":0,"byteLength":32},{"buffer":10,"byteOffset":0,"byteLength":96},{"buffer":11,"byteOffset":0,"byteLength":96},{"buffer":12,"byteOffset":0,"byteLength":32},{"buffer":13,"byteOffset":0,"byteLength":96},{"buffer":14,"byteOffset":0,"byteLength":32}]}